%TF.GenerationSoftware,KiCad,Pcbnew,8.0.4*%
%TF.CreationDate,2026-02-07T19:25:16+01:00*%
%TF.ProjectId,sensor,73656e73-6f72-42e6-9b69-6361645f7063,rev?*%
%TF.SameCoordinates,Original*%
%TF.FileFunction,Copper,L2,Bot*%
%TF.FilePolarity,Positive*%
%FSLAX46Y46*%
G04 Gerber Fmt 4.6, Leading zero omitted, Abs format (unit mm)*
G04 Created by KiCad (PCBNEW 8.0.4) date 2026-02-07 19:25:16*
%MOMM*%
%LPD*%
G01*
G04 APERTURE LIST*
%TA.AperFunction,ComponentPad*%
%ADD10R,1.700000X1.700000*%
%TD*%
%TA.AperFunction,ComponentPad*%
%ADD11O,1.700000X1.700000*%
%TD*%
%TA.AperFunction,ComponentPad*%
%ADD12R,1.500000X1.500000*%
%TD*%
%TA.AperFunction,ComponentPad*%
%ADD13C,1.500000*%
%TD*%
%TA.AperFunction,ComponentPad*%
%ADD14R,1.050000X1.500000*%
%TD*%
%TA.AperFunction,ComponentPad*%
%ADD15O,1.050000X1.500000*%
%TD*%
%TA.AperFunction,ViaPad*%
%ADD16C,0.600000*%
%TD*%
%TA.AperFunction,Conductor*%
%ADD17C,0.200000*%
%TD*%
G04 APERTURE END LIST*
D10*
%TO.P,U1,1,PA02_A0_D0*%
%TO.N,/DHT_DATA*%
X127635000Y-82900000D03*
D11*
%TO.P,U1,2,PA4_A1_D1*%
%TO.N,/ADC_In*%
X127635000Y-85440000D03*
%TO.P,U1,3,PA10_A2_D2*%
%TO.N,/TEMP_SENS_1_WIRE*%
X127635000Y-87980000D03*
%TO.P,U1,4,PA11_A3_D3*%
%TO.N,/RS_RX*%
X127635000Y-90520000D03*
%TO.P,U1,5,PA8_A4_D4_SDA*%
%TO.N,/RS_TX*%
X127635000Y-93060000D03*
%TO.P,U1,6,PA9_A5_D5_SCL*%
%TO.N,/RS_RE_DE*%
X127635000Y-95600000D03*
%TO.P,U1,7,PB08_A6_D6_TX*%
%TO.N,/UART_Tx*%
X127635000Y-98140000D03*
%TO.P,U1,8,PB09_A7_D7_RX*%
%TO.N,/UART_Rx*%
X143800000Y-98140000D03*
%TO.P,U1,9,PA7_A8_D8_SCK*%
%TO.N,/AUX_TRIG*%
X143800000Y-95600000D03*
%TO.P,U1,10,PA5_A9_D9_MISO*%
%TO.N,/LIGHT_TRIG*%
X143800000Y-93060000D03*
%TO.P,U1,11,PA6_A10_D10_MOSI*%
%TO.N,Net-(D2-K)*%
X143800000Y-90520000D03*
%TO.P,U1,12,3V3*%
%TO.N,3.3V*%
X143800000Y-87980000D03*
%TO.P,U1,13,GND*%
%TO.N,GND*%
X143800000Y-85440000D03*
D10*
%TO.P,U1,14,5V*%
%TO.N,/5V*%
X143800000Y-82900000D03*
%TD*%
D12*
%TO.P,U4,1,VDD*%
%TO.N,3.3V*%
X133910000Y-107710000D03*
D13*
%TO.P,U4,2,DATA*%
%TO.N,/DHT_DATA*%
X136450000Y-107710000D03*
%TO.P,U4,3,NC*%
%TO.N,unconnected-(U4-NC-Pad3)*%
X138990000Y-107710000D03*
%TO.P,U4,4,GND*%
%TO.N,GND*%
X141530000Y-107710000D03*
%TD*%
D10*
%TO.P,J1,1,Pin_1*%
%TO.N,3.3V*%
X129050000Y-108947500D03*
D11*
%TO.P,J1,2,Pin_2*%
%TO.N,/ADC_In*%
X129050000Y-106407500D03*
%TD*%
D14*
%TO.P,U5,1,GND*%
%TO.N,GND*%
X128600000Y-113600000D03*
D15*
%TO.P,U5,2,DQ*%
%TO.N,/TEMP_SENS_1_WIRE*%
X129870000Y-113600000D03*
%TO.P,U5,3,V_{DD}*%
%TO.N,3.3V*%
X131140000Y-113600000D03*
%TD*%
D10*
%TO.P,J2,1,Pin_1*%
%TO.N,+24V*%
X128175000Y-117800000D03*
D11*
%TO.P,J2,2,Pin_2*%
%TO.N,PLC_COM*%
X130715000Y-117800000D03*
%TO.P,J2,3,Pin_3*%
%TO.N,/AUX_OUT*%
X133255000Y-117800000D03*
%TO.P,J2,4,Pin_4*%
%TO.N,/LIGHT_OUT*%
X135795000Y-117800000D03*
%TO.P,J2,5,Pin_5*%
%TO.N,/RS_A*%
X138335000Y-117800000D03*
%TO.P,J2,6,Pin_6*%
%TO.N,/RS_B*%
X140875000Y-117800000D03*
%TO.P,J2,7,Pin_7*%
%TO.N,GND*%
X143415000Y-117800000D03*
%TD*%
D16*
%TO.N,/LIGHT_TRIG*%
X155000000Y-107200000D03*
%TO.N,/AUX_TRIG*%
X149200000Y-107400000D03*
%TO.N,/RS_B*%
X151400000Y-106200000D03*
%TO.N,/RS_A*%
X150060000Y-106200000D03*
%TO.N,/RS_TX*%
X148800000Y-101800000D03*
%TO.N,/RS_RX*%
X152600000Y-101200000D03*
%TO.N,/RS_RE_DE*%
X151400000Y-102600000D03*
%TD*%
D17*
%TO.N,GND*%
X143420000Y-117600000D02*
X159200000Y-117600000D01*
X160400000Y-89400000D02*
X156440000Y-85440000D01*
X160400000Y-116400000D02*
X160400000Y-89400000D01*
X159200000Y-117600000D02*
X160400000Y-116400000D01*
X156440000Y-85440000D02*
X143800000Y-85440000D01*
%TO.N,/LIGHT_TRIG*%
X155000000Y-107200000D02*
X155000000Y-95000000D01*
X155000000Y-95000000D02*
X153060000Y-93060000D01*
X153060000Y-93060000D02*
X143800000Y-93060000D01*
%TO.N,/AUX_TRIG*%
X154600000Y-106000000D02*
X153200000Y-107400000D01*
X153000000Y-95600000D02*
X143800000Y-95600000D01*
X153200000Y-107400000D02*
X149200000Y-107400000D01*
X154600000Y-97200000D02*
X154600000Y-106000000D01*
X154000000Y-96600000D02*
X154600000Y-97200000D01*
X154000000Y-96600000D02*
X153000000Y-95600000D01*
%TO.N,/RS_B*%
X140875000Y-110925000D02*
X140875000Y-117800000D01*
X151400000Y-106200000D02*
X151400000Y-106600000D01*
X151400000Y-106600000D02*
X151200000Y-106800000D01*
X151200000Y-106800000D02*
X145000000Y-106800000D01*
X145000000Y-106800000D02*
X140875000Y-110925000D01*
%TO.N,/RS_A*%
X138335000Y-112865000D02*
X138335000Y-117800000D01*
X144800000Y-106400000D02*
X138335000Y-112865000D01*
X149860000Y-106400000D02*
X144800000Y-106400000D01*
X150060000Y-106200000D02*
X149860000Y-106400000D01*
%TO.N,/RS_TX*%
X137000000Y-94200000D02*
X135860000Y-93060000D01*
X140034314Y-101800000D02*
X137000000Y-98765686D01*
X148800000Y-101800000D02*
X140034314Y-101800000D01*
X137000000Y-98765686D02*
X137000000Y-94200000D01*
X135860000Y-93060000D02*
X127635000Y-93060000D01*
%TO.N,/RS_RX*%
X136120000Y-90520000D02*
X127635000Y-90520000D01*
X137400000Y-98600000D02*
X137400000Y-91800000D01*
X152600000Y-101200000D02*
X140000000Y-101200000D01*
X137400000Y-91800000D02*
X136120000Y-90520000D01*
X140000000Y-101200000D02*
X137400000Y-98600000D01*
%TO.N,/RS_RE_DE*%
X135800000Y-95600000D02*
X127635000Y-95600000D01*
X140068628Y-102400000D02*
X136600000Y-98931372D01*
X136600000Y-96400000D02*
X135800000Y-95600000D01*
X151400000Y-102600000D02*
X151200000Y-102400000D01*
X136600000Y-98931372D02*
X136600000Y-96400000D01*
X151200000Y-102400000D02*
X140068628Y-102400000D01*
%TD*%
%TA.AperFunction,Conductor*%
%TO.N,GND*%
G36*
X164592539Y-78370185D02*
G01*
X164638294Y-78422989D01*
X164649500Y-78474500D01*
X164649500Y-119725500D01*
X164629815Y-119792539D01*
X164577011Y-119838294D01*
X164525500Y-119849500D01*
X126274500Y-119849500D01*
X126207461Y-119829815D01*
X126161706Y-119777011D01*
X126150500Y-119725500D01*
X126150500Y-116902135D01*
X126824500Y-116902135D01*
X126824500Y-118697870D01*
X126824501Y-118697876D01*
X126830908Y-118757483D01*
X126881202Y-118892328D01*
X126881206Y-118892335D01*
X126967452Y-119007544D01*
X126967455Y-119007547D01*
X127082664Y-119093793D01*
X127082671Y-119093797D01*
X127217517Y-119144091D01*
X127217516Y-119144091D01*
X127224444Y-119144835D01*
X127277127Y-119150500D01*
X129072872Y-119150499D01*
X129132483Y-119144091D01*
X129267331Y-119093796D01*
X129382546Y-119007546D01*
X129468796Y-118892331D01*
X129517810Y-118760916D01*
X129559681Y-118704984D01*
X129625145Y-118680566D01*
X129693418Y-118695417D01*
X129721673Y-118716569D01*
X129843599Y-118838495D01*
X129940384Y-118906265D01*
X130037165Y-118974032D01*
X130037167Y-118974033D01*
X130037170Y-118974035D01*
X130251337Y-119073903D01*
X130479592Y-119135063D01*
X130656034Y-119150500D01*
X130714999Y-119155659D01*
X130715000Y-119155659D01*
X130715001Y-119155659D01*
X130773966Y-119150500D01*
X130950408Y-119135063D01*
X131178663Y-119073903D01*
X131392830Y-118974035D01*
X131586401Y-118838495D01*
X131753495Y-118671401D01*
X131883425Y-118485842D01*
X131938002Y-118442217D01*
X132007500Y-118435023D01*
X132069855Y-118466546D01*
X132086575Y-118485842D01*
X132216281Y-118671082D01*
X132216505Y-118671401D01*
X132383599Y-118838495D01*
X132480384Y-118906265D01*
X132577165Y-118974032D01*
X132577167Y-118974033D01*
X132577170Y-118974035D01*
X132791337Y-119073903D01*
X133019592Y-119135063D01*
X133196034Y-119150500D01*
X133254999Y-119155659D01*
X133255000Y-119155659D01*
X133255001Y-119155659D01*
X133313966Y-119150500D01*
X133490408Y-119135063D01*
X133718663Y-119073903D01*
X133932830Y-118974035D01*
X134126401Y-118838495D01*
X134293495Y-118671401D01*
X134423425Y-118485842D01*
X134478002Y-118442217D01*
X134547500Y-118435023D01*
X134609855Y-118466546D01*
X134626575Y-118485842D01*
X134756281Y-118671082D01*
X134756505Y-118671401D01*
X134923599Y-118838495D01*
X135020384Y-118906265D01*
X135117165Y-118974032D01*
X135117167Y-118974033D01*
X135117170Y-118974035D01*
X135331337Y-119073903D01*
X135559592Y-119135063D01*
X135736034Y-119150500D01*
X135794999Y-119155659D01*
X135795000Y-119155659D01*
X135795001Y-119155659D01*
X135853966Y-119150500D01*
X136030408Y-119135063D01*
X136258663Y-119073903D01*
X136472830Y-118974035D01*
X136666401Y-118838495D01*
X136833495Y-118671401D01*
X136963425Y-118485842D01*
X137018002Y-118442217D01*
X137087500Y-118435023D01*
X137149855Y-118466546D01*
X137166575Y-118485842D01*
X137296281Y-118671082D01*
X137296505Y-118671401D01*
X137463599Y-118838495D01*
X137560384Y-118906265D01*
X137657165Y-118974032D01*
X137657167Y-118974033D01*
X137657170Y-118974035D01*
X137871337Y-119073903D01*
X138099592Y-119135063D01*
X138276034Y-119150500D01*
X138334999Y-119155659D01*
X138335000Y-119155659D01*
X138335001Y-119155659D01*
X138393966Y-119150500D01*
X138570408Y-119135063D01*
X138798663Y-119073903D01*
X139012830Y-118974035D01*
X139206401Y-118838495D01*
X139373495Y-118671401D01*
X139503425Y-118485842D01*
X139558002Y-118442217D01*
X139627500Y-118435023D01*
X139689855Y-118466546D01*
X139706575Y-118485842D01*
X139836281Y-118671082D01*
X139836505Y-118671401D01*
X140003599Y-118838495D01*
X140100384Y-118906265D01*
X140197165Y-118974032D01*
X140197167Y-118974033D01*
X140197170Y-118974035D01*
X140411337Y-119073903D01*
X140639592Y-119135063D01*
X140816034Y-119150500D01*
X140874999Y-119155659D01*
X140875000Y-119155659D01*
X140875001Y-119155659D01*
X140933966Y-119150500D01*
X141110408Y-119135063D01*
X141338663Y-119073903D01*
X141552830Y-118974035D01*
X141746401Y-118838495D01*
X141913495Y-118671401D01*
X142043730Y-118485405D01*
X142098307Y-118441781D01*
X142167805Y-118434587D01*
X142230160Y-118466110D01*
X142246879Y-118485405D01*
X142376890Y-118671078D01*
X142543917Y-118838105D01*
X142737421Y-118973600D01*
X142951507Y-119073429D01*
X142951516Y-119073433D01*
X143165000Y-119130634D01*
X143165000Y-118233012D01*
X143222007Y-118265925D01*
X143349174Y-118300000D01*
X143480826Y-118300000D01*
X143607993Y-118265925D01*
X143665000Y-118233012D01*
X143665000Y-119130633D01*
X143878483Y-119073433D01*
X143878492Y-119073429D01*
X144092578Y-118973600D01*
X144286082Y-118838105D01*
X144453105Y-118671082D01*
X144588600Y-118477578D01*
X144688429Y-118263492D01*
X144688432Y-118263486D01*
X144745636Y-118050000D01*
X143848012Y-118050000D01*
X143880925Y-117992993D01*
X143915000Y-117865826D01*
X143915000Y-117734174D01*
X143880925Y-117607007D01*
X143848012Y-117550000D01*
X144745636Y-117550000D01*
X144745635Y-117549999D01*
X144688432Y-117336513D01*
X144688429Y-117336507D01*
X144588600Y-117122422D01*
X144588599Y-117122420D01*
X144453113Y-116928926D01*
X144453108Y-116928920D01*
X144286082Y-116761894D01*
X144092578Y-116626399D01*
X143878492Y-116526570D01*
X143878486Y-116526567D01*
X143665000Y-116469364D01*
X143665000Y-117366988D01*
X143607993Y-117334075D01*
X143480826Y-117300000D01*
X143349174Y-117300000D01*
X143222007Y-117334075D01*
X143165000Y-117366988D01*
X143165000Y-116469364D01*
X143164999Y-116469364D01*
X142951513Y-116526567D01*
X142951507Y-116526570D01*
X142737422Y-116626399D01*
X142737420Y-116626400D01*
X142543926Y-116761886D01*
X142543920Y-116761891D01*
X142376891Y-116928920D01*
X142376890Y-116928922D01*
X142246880Y-117114595D01*
X142192303Y-117158219D01*
X142122804Y-117165412D01*
X142060450Y-117133890D01*
X142043730Y-117114594D01*
X141913494Y-116928597D01*
X141746402Y-116761506D01*
X141746395Y-116761501D01*
X141552831Y-116625965D01*
X141552826Y-116625962D01*
X141547091Y-116623288D01*
X141494653Y-116577113D01*
X141475500Y-116510908D01*
X141475500Y-111225097D01*
X141495185Y-111158058D01*
X141511819Y-111137416D01*
X145212416Y-107436819D01*
X145273739Y-107403334D01*
X145300097Y-107400500D01*
X148283678Y-107400500D01*
X148350717Y-107420185D01*
X148396472Y-107472989D01*
X148406898Y-107510617D01*
X148414630Y-107579249D01*
X148474210Y-107749521D01*
X148486271Y-107768716D01*
X148570184Y-107902262D01*
X148697738Y-108029816D01*
X148729280Y-108049635D01*
X148832086Y-108114233D01*
X148850478Y-108125789D01*
X149020745Y-108185368D01*
X149020750Y-108185369D01*
X149199996Y-108205565D01*
X149200000Y-108205565D01*
X149200004Y-108205565D01*
X149379249Y-108185369D01*
X149379252Y-108185368D01*
X149379255Y-108185368D01*
X149549522Y-108125789D01*
X149702262Y-108029816D01*
X149702267Y-108029810D01*
X149705097Y-108027555D01*
X149707275Y-108026665D01*
X149708158Y-108026111D01*
X149708255Y-108026265D01*
X149769783Y-108001145D01*
X149782412Y-108000500D01*
X153113331Y-108000500D01*
X153113347Y-108000501D01*
X153120943Y-108000501D01*
X153279054Y-108000501D01*
X153279057Y-108000501D01*
X153431785Y-107959577D01*
X153490307Y-107925789D01*
X153568716Y-107880520D01*
X153680520Y-107768716D01*
X153680520Y-107768714D01*
X153690724Y-107758511D01*
X153690728Y-107758506D01*
X154037594Y-107411639D01*
X154098915Y-107378156D01*
X154168607Y-107383140D01*
X154224540Y-107425012D01*
X154242314Y-107458367D01*
X154247431Y-107472989D01*
X154274210Y-107549521D01*
X154294326Y-107581535D01*
X154370184Y-107702262D01*
X154497738Y-107829816D01*
X154650478Y-107925789D01*
X154747033Y-107959575D01*
X154820745Y-107985368D01*
X154820750Y-107985369D01*
X154999996Y-108005565D01*
X155000000Y-108005565D01*
X155000004Y-108005565D01*
X155179249Y-107985369D01*
X155179252Y-107985368D01*
X155179255Y-107985368D01*
X155349522Y-107925789D01*
X155502262Y-107829816D01*
X155629816Y-107702262D01*
X155725789Y-107549522D01*
X155785368Y-107379255D01*
X155800016Y-107249250D01*
X155805565Y-107200003D01*
X155805565Y-107199996D01*
X155785369Y-107020750D01*
X155785368Y-107020745D01*
X155781023Y-107008328D01*
X155725789Y-106850478D01*
X155629816Y-106697738D01*
X155629814Y-106697736D01*
X155629813Y-106697734D01*
X155627550Y-106694896D01*
X155626659Y-106692715D01*
X155626111Y-106691842D01*
X155626264Y-106691745D01*
X155601144Y-106630209D01*
X155600500Y-106617587D01*
X155600500Y-94920945D01*
X155600499Y-94920941D01*
X155568228Y-94800498D01*
X155568228Y-94800497D01*
X155559578Y-94768218D01*
X155559577Y-94768215D01*
X155527911Y-94713368D01*
X155527911Y-94713367D01*
X155480524Y-94631290D01*
X155480521Y-94631286D01*
X155480520Y-94631284D01*
X155368716Y-94519480D01*
X155368715Y-94519479D01*
X155364385Y-94515149D01*
X155364374Y-94515139D01*
X153547590Y-92698355D01*
X153547588Y-92698352D01*
X153428717Y-92579481D01*
X153428716Y-92579480D01*
X153341904Y-92529360D01*
X153341904Y-92529359D01*
X153341900Y-92529358D01*
X153291785Y-92500423D01*
X153139057Y-92459499D01*
X152980943Y-92459499D01*
X152973347Y-92459499D01*
X152973331Y-92459500D01*
X145089091Y-92459500D01*
X145022052Y-92439815D01*
X144976711Y-92387909D01*
X144974037Y-92382175D01*
X144974034Y-92382170D01*
X144974033Y-92382169D01*
X144838495Y-92188599D01*
X144838494Y-92188597D01*
X144671402Y-92021506D01*
X144671396Y-92021501D01*
X144485842Y-91891575D01*
X144442217Y-91836998D01*
X144435023Y-91767500D01*
X144466546Y-91705145D01*
X144485842Y-91688425D01*
X144508026Y-91672891D01*
X144671401Y-91558495D01*
X144838495Y-91391401D01*
X144974035Y-91197830D01*
X145073903Y-90983663D01*
X145135063Y-90755408D01*
X145155659Y-90520000D01*
X145135063Y-90284592D01*
X145073903Y-90056337D01*
X144974035Y-89842171D01*
X144974034Y-89842169D01*
X144838494Y-89648597D01*
X144671402Y-89481506D01*
X144671396Y-89481501D01*
X144485842Y-89351575D01*
X144442217Y-89296998D01*
X144435023Y-89227500D01*
X144466546Y-89165145D01*
X144485842Y-89148425D01*
X144508026Y-89132891D01*
X144671401Y-89018495D01*
X144838495Y-88851401D01*
X144974035Y-88657830D01*
X145073903Y-88443663D01*
X145135063Y-88215408D01*
X145155659Y-87980000D01*
X145135063Y-87744592D01*
X145073903Y-87516337D01*
X144974035Y-87302171D01*
X144867835Y-87150500D01*
X144838494Y-87108597D01*
X144671402Y-86941506D01*
X144671401Y-86941505D01*
X144485405Y-86811269D01*
X144441781Y-86756692D01*
X144434588Y-86687193D01*
X144466110Y-86624839D01*
X144485405Y-86608119D01*
X144671082Y-86478105D01*
X144838105Y-86311082D01*
X144973600Y-86117578D01*
X145073429Y-85903492D01*
X145073432Y-85903486D01*
X145130636Y-85690000D01*
X144233012Y-85690000D01*
X144265925Y-85632993D01*
X144300000Y-85505826D01*
X144300000Y-85374174D01*
X144265925Y-85247007D01*
X144233012Y-85190000D01*
X145130636Y-85190000D01*
X145130635Y-85189999D01*
X145073432Y-84976513D01*
X145073429Y-84976507D01*
X144973600Y-84762422D01*
X144973599Y-84762420D01*
X144838113Y-84568926D01*
X144838108Y-84568920D01*
X144716053Y-84446865D01*
X144682568Y-84385542D01*
X144687552Y-84315850D01*
X144729424Y-84259917D01*
X144760400Y-84243002D01*
X144892331Y-84193796D01*
X145007546Y-84107546D01*
X145093796Y-83992331D01*
X145144091Y-83857483D01*
X145150500Y-83797873D01*
X145150499Y-82002128D01*
X145144091Y-81942517D01*
X145093796Y-81807669D01*
X145093795Y-81807668D01*
X145093793Y-81807664D01*
X145007547Y-81692455D01*
X145007544Y-81692452D01*
X144892335Y-81606206D01*
X144892328Y-81606202D01*
X144757482Y-81555908D01*
X144757483Y-81555908D01*
X144697883Y-81549501D01*
X144697881Y-81549500D01*
X144697873Y-81549500D01*
X144697864Y-81549500D01*
X142902129Y-81549500D01*
X142902123Y-81549501D01*
X142842516Y-81555908D01*
X142707671Y-81606202D01*
X142707664Y-81606206D01*
X142592455Y-81692452D01*
X142592452Y-81692455D01*
X142506206Y-81807664D01*
X142506202Y-81807671D01*
X142455908Y-81942517D01*
X142449501Y-82002116D01*
X142449501Y-82002123D01*
X142449500Y-82002135D01*
X142449500Y-83797870D01*
X142449501Y-83797876D01*
X142455908Y-83857483D01*
X142506202Y-83992328D01*
X142506206Y-83992335D01*
X142592452Y-84107544D01*
X142592455Y-84107547D01*
X142707664Y-84193793D01*
X142707671Y-84193797D01*
X142707674Y-84193798D01*
X142839598Y-84243002D01*
X142895531Y-84284873D01*
X142919949Y-84350337D01*
X142905098Y-84418610D01*
X142883947Y-84446865D01*
X142761886Y-84568926D01*
X142626400Y-84762420D01*
X142626399Y-84762422D01*
X142526570Y-84976507D01*
X142526567Y-84976513D01*
X142469364Y-85189999D01*
X142469364Y-85190000D01*
X143366988Y-85190000D01*
X143334075Y-85247007D01*
X143300000Y-85374174D01*
X143300000Y-85505826D01*
X143334075Y-85632993D01*
X143366988Y-85690000D01*
X142469364Y-85690000D01*
X142526567Y-85903486D01*
X142526570Y-85903492D01*
X142626399Y-86117578D01*
X142761894Y-86311082D01*
X142928917Y-86478105D01*
X143114595Y-86608119D01*
X143158219Y-86662696D01*
X143165412Y-86732195D01*
X143133890Y-86794549D01*
X143114595Y-86811269D01*
X142928594Y-86941508D01*
X142761505Y-87108597D01*
X142625965Y-87302169D01*
X142625964Y-87302171D01*
X142526098Y-87516335D01*
X142526094Y-87516344D01*
X142464938Y-87744586D01*
X142464936Y-87744596D01*
X142444341Y-87979999D01*
X142444341Y-87980000D01*
X142464936Y-88215403D01*
X142464938Y-88215413D01*
X142526094Y-88443655D01*
X142526096Y-88443659D01*
X142526097Y-88443663D01*
X142625965Y-88657830D01*
X142625967Y-88657834D01*
X142761501Y-88851395D01*
X142761506Y-88851402D01*
X142928597Y-89018493D01*
X142928603Y-89018498D01*
X143114158Y-89148425D01*
X143157783Y-89203002D01*
X143164977Y-89272500D01*
X143133454Y-89334855D01*
X143114158Y-89351575D01*
X142928597Y-89481505D01*
X142761505Y-89648597D01*
X142625965Y-89842169D01*
X142625964Y-89842171D01*
X142526098Y-90056335D01*
X142526094Y-90056344D01*
X142464938Y-90284586D01*
X142464936Y-90284596D01*
X142444341Y-90519999D01*
X142444341Y-90520000D01*
X142464936Y-90755403D01*
X142464938Y-90755413D01*
X142526094Y-90983655D01*
X142526096Y-90983659D01*
X142526097Y-90983663D01*
X142598839Y-91139658D01*
X142625965Y-91197830D01*
X142625967Y-91197834D01*
X142761501Y-91391395D01*
X142761506Y-91391402D01*
X142928597Y-91558493D01*
X142928603Y-91558498D01*
X143114158Y-91688425D01*
X143157783Y-91743002D01*
X143164977Y-91812500D01*
X143133454Y-91874855D01*
X143114158Y-91891575D01*
X142928597Y-92021505D01*
X142761505Y-92188597D01*
X142625965Y-92382169D01*
X142625964Y-92382171D01*
X142526098Y-92596335D01*
X142526094Y-92596344D01*
X142464938Y-92824586D01*
X142464936Y-92824596D01*
X142444341Y-93059999D01*
X142444341Y-93060000D01*
X142464936Y-93295403D01*
X142464938Y-93295413D01*
X142526094Y-93523655D01*
X142526096Y-93523659D01*
X142526097Y-93523663D01*
X142598839Y-93679658D01*
X142625965Y-93737830D01*
X142625967Y-93737834D01*
X142761501Y-93931395D01*
X142761506Y-93931402D01*
X142928597Y-94098493D01*
X142928603Y-94098498D01*
X143114158Y-94228425D01*
X143157783Y-94283002D01*
X143164977Y-94352500D01*
X143133454Y-94414855D01*
X143114158Y-94431575D01*
X142928597Y-94561505D01*
X142761505Y-94728597D01*
X142625965Y-94922169D01*
X142625964Y-94922171D01*
X142526098Y-95136335D01*
X142526094Y-95136344D01*
X142464938Y-95364586D01*
X142464936Y-95364596D01*
X142444341Y-95599999D01*
X142444341Y-95600000D01*
X142464936Y-95835403D01*
X142464938Y-95835413D01*
X142526094Y-96063655D01*
X142526096Y-96063659D01*
X142526097Y-96063663D01*
X142598839Y-96219658D01*
X142625965Y-96277830D01*
X142625967Y-96277834D01*
X142761501Y-96471395D01*
X142761506Y-96471402D01*
X142928597Y-96638493D01*
X142928603Y-96638498D01*
X143114158Y-96768425D01*
X143157783Y-96823002D01*
X143164977Y-96892500D01*
X143133454Y-96954855D01*
X143114158Y-96971575D01*
X142928597Y-97101505D01*
X142761505Y-97268597D01*
X142625965Y-97462169D01*
X142625964Y-97462171D01*
X142526098Y-97676335D01*
X142526094Y-97676344D01*
X142464938Y-97904586D01*
X142464936Y-97904596D01*
X142444341Y-98139999D01*
X142444341Y-98140000D01*
X142464936Y-98375403D01*
X142464938Y-98375413D01*
X142526094Y-98603655D01*
X142526096Y-98603659D01*
X142526097Y-98603663D01*
X142625965Y-98817830D01*
X142625967Y-98817834D01*
X142734281Y-98972521D01*
X142761505Y-99011401D01*
X142928599Y-99178495D01*
X143025384Y-99246265D01*
X143122165Y-99314032D01*
X143122167Y-99314033D01*
X143122170Y-99314035D01*
X143336337Y-99413903D01*
X143336343Y-99413904D01*
X143336344Y-99413905D01*
X143391285Y-99428626D01*
X143564592Y-99475063D01*
X143752918Y-99491539D01*
X143799999Y-99495659D01*
X143800000Y-99495659D01*
X143800001Y-99495659D01*
X143839234Y-99492226D01*
X144035408Y-99475063D01*
X144263663Y-99413903D01*
X144477830Y-99314035D01*
X144671401Y-99178495D01*
X144838495Y-99011401D01*
X144974035Y-98817830D01*
X145073903Y-98603663D01*
X145135063Y-98375408D01*
X145155659Y-98140000D01*
X145135063Y-97904592D01*
X145073903Y-97676337D01*
X144974035Y-97462171D01*
X144939197Y-97412416D01*
X144838494Y-97268597D01*
X144671402Y-97101506D01*
X144671396Y-97101501D01*
X144485842Y-96971575D01*
X144442217Y-96916998D01*
X144435023Y-96847500D01*
X144466546Y-96785145D01*
X144485842Y-96768425D01*
X144621067Y-96673739D01*
X144671401Y-96638495D01*
X144838495Y-96471401D01*
X144974035Y-96277830D01*
X144976707Y-96272097D01*
X145022878Y-96219658D01*
X145089091Y-96200500D01*
X152699903Y-96200500D01*
X152766942Y-96220185D01*
X152787583Y-96236818D01*
X153224503Y-96673739D01*
X153638349Y-97087585D01*
X153638355Y-97087590D01*
X153963181Y-97412416D01*
X153996666Y-97473739D01*
X153999500Y-97500097D01*
X153999500Y-105699903D01*
X153979815Y-105766942D01*
X153963181Y-105787584D01*
X152987584Y-106763181D01*
X152926261Y-106796666D01*
X152899903Y-106799500D01*
X152193079Y-106799500D01*
X152126040Y-106779815D01*
X152080285Y-106727011D01*
X152070341Y-106657853D01*
X152088085Y-106609528D01*
X152125788Y-106549523D01*
X152125789Y-106549522D01*
X152185368Y-106379255D01*
X152205565Y-106200000D01*
X152185368Y-106020745D01*
X152125789Y-105850478D01*
X152029816Y-105697738D01*
X151902262Y-105570184D01*
X151848013Y-105536097D01*
X151749523Y-105474211D01*
X151579254Y-105414631D01*
X151579249Y-105414630D01*
X151400004Y-105394435D01*
X151399996Y-105394435D01*
X151220750Y-105414630D01*
X151220745Y-105414631D01*
X151050476Y-105474211D01*
X150897737Y-105570184D01*
X150817681Y-105650241D01*
X150756358Y-105683726D01*
X150686666Y-105678742D01*
X150642319Y-105650241D01*
X150562262Y-105570184D01*
X150409523Y-105474211D01*
X150239254Y-105414631D01*
X150239249Y-105414630D01*
X150060004Y-105394435D01*
X150059996Y-105394435D01*
X149880750Y-105414630D01*
X149880745Y-105414631D01*
X149710476Y-105474211D01*
X149557737Y-105570184D01*
X149430182Y-105697739D01*
X149402703Y-105741473D01*
X149350369Y-105787763D01*
X149297710Y-105799500D01*
X144886670Y-105799500D01*
X144886654Y-105799499D01*
X144879058Y-105799499D01*
X144720943Y-105799499D01*
X144644579Y-105819961D01*
X144568214Y-105840423D01*
X144568209Y-105840426D01*
X144431290Y-105919475D01*
X144431282Y-105919481D01*
X142937221Y-107413541D01*
X142875898Y-107447026D01*
X142806206Y-107442042D01*
X142750273Y-107400170D01*
X142729765Y-107357953D01*
X142709105Y-107280849D01*
X142709101Y-107280840D01*
X142616667Y-107082614D01*
X142616666Y-107082612D01*
X142573124Y-107020428D01*
X142573124Y-107020427D01*
X141930000Y-107663552D01*
X141930000Y-107657339D01*
X141902741Y-107555606D01*
X141850080Y-107464394D01*
X141775606Y-107389920D01*
X141684394Y-107337259D01*
X141582661Y-107310000D01*
X141576447Y-107310000D01*
X142219571Y-106666874D01*
X142157387Y-106623333D01*
X141959159Y-106530898D01*
X141959150Y-106530894D01*
X141747894Y-106474289D01*
X141747884Y-106474287D01*
X141530001Y-106455225D01*
X141529999Y-106455225D01*
X141312115Y-106474287D01*
X141312105Y-106474289D01*
X141100849Y-106530894D01*
X141100840Y-106530898D01*
X140902613Y-106623333D01*
X140840428Y-106666874D01*
X141483554Y-107310000D01*
X141477339Y-107310000D01*
X141375606Y-107337259D01*
X141284394Y-107389920D01*
X141209920Y-107464394D01*
X141157259Y-107555606D01*
X141130000Y-107657339D01*
X141130000Y-107663554D01*
X140486874Y-107020428D01*
X140443333Y-107082613D01*
X140372658Y-107234175D01*
X140326485Y-107286614D01*
X140259292Y-107305766D01*
X140192411Y-107285550D01*
X140147894Y-107234175D01*
X140131956Y-107199996D01*
X140077102Y-107082362D01*
X140077100Y-107082359D01*
X140077099Y-107082357D01*
X139951599Y-106903124D01*
X139898951Y-106850476D01*
X139796877Y-106748402D01*
X139628080Y-106630209D01*
X139617638Y-106622897D01*
X139518484Y-106576661D01*
X139419330Y-106530425D01*
X139419326Y-106530424D01*
X139419322Y-106530422D01*
X139207977Y-106473793D01*
X138990002Y-106454723D01*
X138989998Y-106454723D01*
X138862151Y-106465908D01*
X138772023Y-106473793D01*
X138772020Y-106473793D01*
X138560677Y-106530422D01*
X138560668Y-106530426D01*
X138362361Y-106622898D01*
X138362357Y-106622900D01*
X138183121Y-106748402D01*
X138028402Y-106903121D01*
X137902900Y-107082357D01*
X137902898Y-107082361D01*
X137832382Y-107233583D01*
X137786209Y-107286022D01*
X137719016Y-107305174D01*
X137652135Y-107284958D01*
X137607618Y-107233583D01*
X137591956Y-107199996D01*
X137537102Y-107082362D01*
X137537100Y-107082359D01*
X137537099Y-107082357D01*
X137411599Y-106903124D01*
X137358951Y-106850476D01*
X137256877Y-106748402D01*
X137088080Y-106630209D01*
X137077638Y-106622897D01*
X136978484Y-106576661D01*
X136879330Y-106530425D01*
X136879326Y-106530424D01*
X136879322Y-106530422D01*
X136667977Y-106473793D01*
X136450002Y-106454723D01*
X136449998Y-106454723D01*
X136322151Y-106465908D01*
X136232023Y-106473793D01*
X136232020Y-106473793D01*
X136020677Y-106530422D01*
X136020668Y-106530426D01*
X135822361Y-106622898D01*
X135822357Y-106622900D01*
X135643121Y-106748402D01*
X135488402Y-106903121D01*
X135386074Y-107049262D01*
X135331497Y-107092887D01*
X135261999Y-107100081D01*
X135199644Y-107068558D01*
X135164230Y-107008328D01*
X135160499Y-106978139D01*
X135160499Y-106912129D01*
X135160498Y-106912123D01*
X135160497Y-106912116D01*
X135154091Y-106852517D01*
X135116153Y-106750801D01*
X135103797Y-106717671D01*
X135103793Y-106717664D01*
X135017547Y-106602455D01*
X135017544Y-106602452D01*
X134902335Y-106516206D01*
X134902328Y-106516202D01*
X134767482Y-106465908D01*
X134767483Y-106465908D01*
X134707883Y-106459501D01*
X134707881Y-106459500D01*
X134707873Y-106459500D01*
X134707864Y-106459500D01*
X133112129Y-106459500D01*
X133112123Y-106459501D01*
X133052516Y-106465908D01*
X132917671Y-106516202D01*
X132917664Y-106516206D01*
X132802455Y-106602452D01*
X132802452Y-106602455D01*
X132716206Y-106717664D01*
X132716202Y-106717671D01*
X132665908Y-106852517D01*
X132660468Y-106903121D01*
X132659501Y-106912123D01*
X132659500Y-106912135D01*
X132659500Y-108507870D01*
X132659501Y-108507876D01*
X132665908Y-108567483D01*
X132716202Y-108702328D01*
X132716206Y-108702335D01*
X132802452Y-108817544D01*
X132802455Y-108817547D01*
X132917664Y-108903793D01*
X132917671Y-108903797D01*
X133052517Y-108954091D01*
X133052516Y-108954091D01*
X133059444Y-108954835D01*
X133112127Y-108960500D01*
X134707872Y-108960499D01*
X134767483Y-108954091D01*
X134902331Y-108903796D01*
X135017546Y-108817546D01*
X135103796Y-108702331D01*
X135154091Y-108567483D01*
X135160500Y-108507873D01*
X135160499Y-108441860D01*
X135180183Y-108374824D01*
X135232986Y-108329068D01*
X135302144Y-108319124D01*
X135365700Y-108348148D01*
X135386073Y-108370738D01*
X135435877Y-108441864D01*
X135488402Y-108516877D01*
X135643123Y-108671598D01*
X135822361Y-108797102D01*
X136020670Y-108889575D01*
X136232023Y-108946207D01*
X136414926Y-108962208D01*
X136449998Y-108965277D01*
X136450000Y-108965277D01*
X136450002Y-108965277D01*
X136478254Y-108962805D01*
X136667977Y-108946207D01*
X136879330Y-108889575D01*
X137077639Y-108797102D01*
X137256877Y-108671598D01*
X137411598Y-108516877D01*
X137537102Y-108337639D01*
X137607618Y-108186414D01*
X137653790Y-108133977D01*
X137720984Y-108114825D01*
X137787865Y-108135041D01*
X137832381Y-108186414D01*
X137902898Y-108337639D01*
X138028402Y-108516877D01*
X138183123Y-108671598D01*
X138362361Y-108797102D01*
X138560670Y-108889575D01*
X138772023Y-108946207D01*
X138954926Y-108962208D01*
X138989998Y-108965277D01*
X138990000Y-108965277D01*
X138990002Y-108965277D01*
X139018254Y-108962805D01*
X139207977Y-108946207D01*
X139419330Y-108889575D01*
X139617639Y-108797102D01*
X139796877Y-108671598D01*
X139951598Y-108516877D01*
X140077102Y-108337639D01*
X140147895Y-108185822D01*
X140194066Y-108133385D01*
X140261260Y-108114233D01*
X140328141Y-108134449D01*
X140372658Y-108185824D01*
X140443333Y-108337387D01*
X140486874Y-108399571D01*
X141130000Y-107756445D01*
X141130000Y-107762661D01*
X141157259Y-107864394D01*
X141209920Y-107955606D01*
X141284394Y-108030080D01*
X141375606Y-108082741D01*
X141477339Y-108110000D01*
X141483553Y-108110000D01*
X140840427Y-108753124D01*
X140902612Y-108796666D01*
X141100840Y-108889101D01*
X141100849Y-108889105D01*
X141177953Y-108909765D01*
X141237614Y-108946130D01*
X141268143Y-109008977D01*
X141259848Y-109078352D01*
X141233541Y-109117221D01*
X137966286Y-112384478D01*
X137854481Y-112496282D01*
X137854480Y-112496284D01*
X137807047Y-112578442D01*
X137804361Y-112583094D01*
X137804359Y-112583096D01*
X137775425Y-112633209D01*
X137775424Y-112633210D01*
X137775423Y-112633215D01*
X137734499Y-112785943D01*
X137734499Y-112785945D01*
X137734499Y-112954046D01*
X137734500Y-112954059D01*
X137734500Y-116510908D01*
X137714815Y-116577947D01*
X137662914Y-116623286D01*
X137657173Y-116625963D01*
X137657169Y-116625965D01*
X137463597Y-116761505D01*
X137296505Y-116928597D01*
X137166575Y-117114158D01*
X137111998Y-117157783D01*
X137042500Y-117164977D01*
X136980145Y-117133454D01*
X136963425Y-117114158D01*
X136833494Y-116928597D01*
X136666402Y-116761506D01*
X136666395Y-116761501D01*
X136472834Y-116625967D01*
X136472830Y-116625965D01*
X136467085Y-116623286D01*
X136258663Y-116526097D01*
X136258659Y-116526096D01*
X136258655Y-116526094D01*
X136030413Y-116464938D01*
X136030403Y-116464936D01*
X135795001Y-116444341D01*
X135794999Y-116444341D01*
X135559596Y-116464936D01*
X135559586Y-116464938D01*
X135331344Y-116526094D01*
X135331335Y-116526098D01*
X135117171Y-116625964D01*
X135117169Y-116625965D01*
X134923597Y-116761505D01*
X134756505Y-116928597D01*
X134626575Y-117114158D01*
X134571998Y-117157783D01*
X134502500Y-117164977D01*
X134440145Y-117133454D01*
X134423425Y-117114158D01*
X134293494Y-116928597D01*
X134126402Y-116761506D01*
X134126395Y-116761501D01*
X133932834Y-116625967D01*
X133932830Y-116625965D01*
X133927085Y-116623286D01*
X133718663Y-116526097D01*
X133718659Y-116526096D01*
X133718655Y-116526094D01*
X133490413Y-116464938D01*
X133490403Y-116464936D01*
X133255001Y-116444341D01*
X133254999Y-116444341D01*
X133019596Y-116464936D01*
X133019586Y-116464938D01*
X132791344Y-116526094D01*
X132791335Y-116526098D01*
X132577171Y-116625964D01*
X132577169Y-116625965D01*
X132383597Y-116761505D01*
X132216505Y-116928597D01*
X132086575Y-117114158D01*
X132031998Y-117157783D01*
X131962500Y-117164977D01*
X131900145Y-117133454D01*
X131883425Y-117114158D01*
X131753494Y-116928597D01*
X131586402Y-116761506D01*
X131586395Y-116761501D01*
X131392834Y-116625967D01*
X131392830Y-116625965D01*
X131387085Y-116623286D01*
X131178663Y-116526097D01*
X131178659Y-116526096D01*
X131178655Y-116526094D01*
X130950413Y-116464938D01*
X130950403Y-116464936D01*
X130715001Y-116444341D01*
X130714999Y-116444341D01*
X130479596Y-116464936D01*
X130479586Y-116464938D01*
X130251344Y-116526094D01*
X130251335Y-116526098D01*
X130037171Y-116625964D01*
X130037169Y-116625965D01*
X129843600Y-116761503D01*
X129721673Y-116883430D01*
X129660350Y-116916914D01*
X129590658Y-116911930D01*
X129534725Y-116870058D01*
X129517810Y-116839081D01*
X129468797Y-116707671D01*
X129468793Y-116707664D01*
X129382547Y-116592455D01*
X129382544Y-116592452D01*
X129267335Y-116506206D01*
X129267328Y-116506202D01*
X129132482Y-116455908D01*
X129132483Y-116455908D01*
X129072883Y-116449501D01*
X129072881Y-116449500D01*
X129072873Y-116449500D01*
X129072864Y-116449500D01*
X127277129Y-116449500D01*
X127277123Y-116449501D01*
X127217516Y-116455908D01*
X127082671Y-116506202D01*
X127082664Y-116506206D01*
X126967455Y-116592452D01*
X126967452Y-116592455D01*
X126881206Y-116707664D01*
X126881202Y-116707671D01*
X126830908Y-116842517D01*
X126824501Y-116902116D01*
X126824500Y-116902135D01*
X126150500Y-116902135D01*
X126150500Y-112802155D01*
X127575000Y-112802155D01*
X127575000Y-113350000D01*
X128319670Y-113350000D01*
X128299925Y-113369745D01*
X128250556Y-113455255D01*
X128225000Y-113550630D01*
X128225000Y-113649370D01*
X128250556Y-113744745D01*
X128299925Y-113830255D01*
X128319670Y-113850000D01*
X127575000Y-113850000D01*
X127575000Y-114397844D01*
X127581401Y-114457372D01*
X127581403Y-114457379D01*
X127631645Y-114592086D01*
X127631649Y-114592093D01*
X127717809Y-114707187D01*
X127717812Y-114707190D01*
X127832906Y-114793350D01*
X127832913Y-114793354D01*
X127967620Y-114843596D01*
X127967627Y-114843598D01*
X128027155Y-114849999D01*
X128027172Y-114850000D01*
X128350000Y-114850000D01*
X128350000Y-113880330D01*
X128369745Y-113900075D01*
X128455255Y-113949444D01*
X128550630Y-113975000D01*
X128649370Y-113975000D01*
X128744745Y-113949444D01*
X128830255Y-113900075D01*
X128844500Y-113885830D01*
X128844500Y-113926002D01*
X128847617Y-113941671D01*
X128850000Y-113965865D01*
X128850000Y-114850000D01*
X129172828Y-114850000D01*
X129172844Y-114849999D01*
X129232372Y-114843598D01*
X129232376Y-114843597D01*
X129367089Y-114793352D01*
X129367896Y-114792748D01*
X129368845Y-114792393D01*
X129374876Y-114789101D01*
X129375349Y-114789967D01*
X129433360Y-114768329D01*
X129489661Y-114777451D01*
X129570873Y-114811091D01*
X129734288Y-114843596D01*
X129768992Y-114850499D01*
X129768996Y-114850500D01*
X129768997Y-114850500D01*
X129971004Y-114850500D01*
X129971005Y-114850499D01*
X130169127Y-114811091D01*
X130355756Y-114733786D01*
X130436110Y-114680094D01*
X130502786Y-114659217D01*
X130570166Y-114677701D01*
X130573865Y-114680078D01*
X130654244Y-114733786D01*
X130840873Y-114811091D01*
X131004288Y-114843596D01*
X131038992Y-114850499D01*
X131038996Y-114850500D01*
X131038997Y-114850500D01*
X131241004Y-114850500D01*
X131241005Y-114850499D01*
X131439127Y-114811091D01*
X131625756Y-114733786D01*
X131793718Y-114621558D01*
X131936558Y-114478718D01*
X132048786Y-114310756D01*
X132126091Y-114124127D01*
X132165500Y-113926003D01*
X132165500Y-113273997D01*
X132126091Y-113075873D01*
X132048786Y-112889244D01*
X132048784Y-112889241D01*
X132048782Y-112889237D01*
X131936558Y-112721281D01*
X131793718Y-112578441D01*
X131625762Y-112466217D01*
X131625752Y-112466212D01*
X131439127Y-112388909D01*
X131439119Y-112388907D01*
X131241007Y-112349500D01*
X131241003Y-112349500D01*
X131038997Y-112349500D01*
X131038992Y-112349500D01*
X130840880Y-112388907D01*
X130840872Y-112388909D01*
X130654244Y-112466213D01*
X130573891Y-112519904D01*
X130507213Y-112540782D01*
X130439833Y-112522297D01*
X130436109Y-112519904D01*
X130355755Y-112466213D01*
X130169127Y-112388909D01*
X130169119Y-112388907D01*
X129971007Y-112349500D01*
X129971003Y-112349500D01*
X129768997Y-112349500D01*
X129768992Y-112349500D01*
X129570880Y-112388907D01*
X129570868Y-112388910D01*
X129489661Y-112422547D01*
X129420191Y-112430016D01*
X129375140Y-112410405D01*
X129374872Y-112410897D01*
X129369374Y-112407894D01*
X129367895Y-112407251D01*
X129367086Y-112406645D01*
X129232379Y-112356403D01*
X129232372Y-112356401D01*
X129172844Y-112350000D01*
X128850000Y-112350000D01*
X128850000Y-113234134D01*
X128847617Y-113258326D01*
X128844500Y-113273995D01*
X128844500Y-113314170D01*
X128830255Y-113299925D01*
X128744745Y-113250556D01*
X128649370Y-113225000D01*
X128550630Y-113225000D01*
X128455255Y-113250556D01*
X128369745Y-113299925D01*
X128350000Y-113319670D01*
X128350000Y-112350000D01*
X128027155Y-112350000D01*
X127967627Y-112356401D01*
X127967620Y-112356403D01*
X127832913Y-112406645D01*
X127832906Y-112406649D01*
X127717812Y-112492809D01*
X127717809Y-112492812D01*
X127631649Y-112607906D01*
X127631645Y-112607913D01*
X127581403Y-112742620D01*
X127581401Y-112742627D01*
X127575000Y-112802155D01*
X126150500Y-112802155D01*
X126150500Y-106407499D01*
X127694341Y-106407499D01*
X127694341Y-106407500D01*
X127714936Y-106642903D01*
X127714938Y-106642913D01*
X127776094Y-106871155D01*
X127776096Y-106871159D01*
X127776097Y-106871163D01*
X127845851Y-107020750D01*
X127875965Y-107085330D01*
X127875967Y-107085334D01*
X127956255Y-107199996D01*
X128011501Y-107278896D01*
X128011506Y-107278902D01*
X128133430Y-107400826D01*
X128166915Y-107462149D01*
X128161931Y-107531841D01*
X128120059Y-107587774D01*
X128089083Y-107604689D01*
X127957669Y-107653703D01*
X127957664Y-107653706D01*
X127842455Y-107739952D01*
X127842452Y-107739955D01*
X127756206Y-107855164D01*
X127756202Y-107855171D01*
X127705908Y-107990017D01*
X127699501Y-108049616D01*
X127699501Y-108049623D01*
X127699500Y-108049635D01*
X127699500Y-109845370D01*
X127699501Y-109845376D01*
X127705908Y-109904983D01*
X127756202Y-110039828D01*
X127756206Y-110039835D01*
X127842452Y-110155044D01*
X127842455Y-110155047D01*
X127957664Y-110241293D01*
X127957671Y-110241297D01*
X128092517Y-110291591D01*
X128092516Y-110291591D01*
X128099444Y-110292335D01*
X128152127Y-110298000D01*
X129947872Y-110297999D01*
X130007483Y-110291591D01*
X130142331Y-110241296D01*
X130257546Y-110155046D01*
X130343796Y-110039831D01*
X130394091Y-109904983D01*
X130400500Y-109845373D01*
X130400499Y-108049628D01*
X130394091Y-107990017D01*
X130392357Y-107985369D01*
X130343797Y-107855171D01*
X130343793Y-107855164D01*
X130257547Y-107739955D01*
X130257544Y-107739952D01*
X130142335Y-107653706D01*
X130142328Y-107653702D01*
X130010917Y-107604689D01*
X129954983Y-107562818D01*
X129930566Y-107497353D01*
X129945418Y-107429080D01*
X129966563Y-107400832D01*
X130088495Y-107278901D01*
X130224035Y-107085330D01*
X130323903Y-106871163D01*
X130385063Y-106642908D01*
X130405659Y-106407500D01*
X130385063Y-106172092D01*
X130323903Y-105943837D01*
X130224035Y-105729671D01*
X130203192Y-105699903D01*
X130088494Y-105536097D01*
X129921402Y-105369006D01*
X129921395Y-105369001D01*
X129727834Y-105233467D01*
X129727830Y-105233465D01*
X129727828Y-105233464D01*
X129513663Y-105133597D01*
X129513659Y-105133596D01*
X129513655Y-105133594D01*
X129285413Y-105072438D01*
X129285403Y-105072436D01*
X129050001Y-105051841D01*
X129049999Y-105051841D01*
X128814596Y-105072436D01*
X128814586Y-105072438D01*
X128586344Y-105133594D01*
X128586335Y-105133598D01*
X128372171Y-105233464D01*
X128372169Y-105233465D01*
X128178597Y-105369005D01*
X128011505Y-105536097D01*
X127875965Y-105729669D01*
X127875964Y-105729671D01*
X127776098Y-105943835D01*
X127776094Y-105943844D01*
X127714938Y-106172086D01*
X127714936Y-106172096D01*
X127694341Y-106407499D01*
X126150500Y-106407499D01*
X126150500Y-98711363D01*
X126170185Y-98644324D01*
X126222989Y-98598569D01*
X126292147Y-98588625D01*
X126355703Y-98617650D01*
X126386880Y-98658956D01*
X126460965Y-98817830D01*
X126460967Y-98817834D01*
X126569281Y-98972521D01*
X126596505Y-99011401D01*
X126763599Y-99178495D01*
X126860384Y-99246265D01*
X126957165Y-99314032D01*
X126957167Y-99314033D01*
X126957170Y-99314035D01*
X127171337Y-99413903D01*
X127171343Y-99413904D01*
X127171344Y-99413905D01*
X127226285Y-99428626D01*
X127399592Y-99475063D01*
X127587918Y-99491539D01*
X127634999Y-99495659D01*
X127635000Y-99495659D01*
X127635001Y-99495659D01*
X127674234Y-99492226D01*
X127870408Y-99475063D01*
X128098663Y-99413903D01*
X128312830Y-99314035D01*
X128506401Y-99178495D01*
X128673495Y-99011401D01*
X128809035Y-98817830D01*
X128908903Y-98603663D01*
X128970063Y-98375408D01*
X128990659Y-98140000D01*
X128970063Y-97904592D01*
X128908903Y-97676337D01*
X128809035Y-97462171D01*
X128774197Y-97412416D01*
X128673494Y-97268597D01*
X128506402Y-97101506D01*
X128506396Y-97101501D01*
X128320842Y-96971575D01*
X128277217Y-96916998D01*
X128270023Y-96847500D01*
X128301546Y-96785145D01*
X128320842Y-96768425D01*
X128456067Y-96673739D01*
X128506401Y-96638495D01*
X128673495Y-96471401D01*
X128809035Y-96277830D01*
X128811707Y-96272097D01*
X128857878Y-96219658D01*
X128924091Y-96200500D01*
X135499903Y-96200500D01*
X135566942Y-96220185D01*
X135587584Y-96236819D01*
X135963181Y-96612416D01*
X135996666Y-96673739D01*
X135999500Y-96700097D01*
X135999500Y-98844702D01*
X135999499Y-98844720D01*
X135999499Y-99010426D01*
X135999498Y-99010426D01*
X135999499Y-99010429D01*
X136040423Y-99163157D01*
X136061983Y-99200500D01*
X136119477Y-99300084D01*
X136119481Y-99300089D01*
X136238349Y-99418957D01*
X136238354Y-99418961D01*
X139699912Y-102880520D01*
X139699914Y-102880521D01*
X139699918Y-102880524D01*
X139819428Y-102949522D01*
X139836844Y-102959577D01*
X139989571Y-103000501D01*
X139989573Y-103000501D01*
X140155282Y-103000501D01*
X140155298Y-103000500D01*
X150637710Y-103000500D01*
X150704749Y-103020185D01*
X150742703Y-103058527D01*
X150770182Y-103102260D01*
X150770184Y-103102262D01*
X150897738Y-103229816D01*
X151050478Y-103325789D01*
X151220745Y-103385368D01*
X151220750Y-103385369D01*
X151399996Y-103405565D01*
X151400000Y-103405565D01*
X151400004Y-103405565D01*
X151579249Y-103385369D01*
X151579252Y-103385368D01*
X151579255Y-103385368D01*
X151749522Y-103325789D01*
X151902262Y-103229816D01*
X152029816Y-103102262D01*
X152125789Y-102949522D01*
X152185368Y-102779255D01*
X152205565Y-102600000D01*
X152185368Y-102420745D01*
X152125789Y-102250478D01*
X152029816Y-102097738D01*
X151972293Y-102040215D01*
X151938808Y-101978892D01*
X151943792Y-101909200D01*
X151985664Y-101853267D01*
X152051128Y-101828850D01*
X152119401Y-101843702D01*
X152125939Y-101847536D01*
X152250478Y-101925789D01*
X152377352Y-101970184D01*
X152420745Y-101985368D01*
X152420750Y-101985369D01*
X152599996Y-102005565D01*
X152600000Y-102005565D01*
X152600004Y-102005565D01*
X152779249Y-101985369D01*
X152779252Y-101985368D01*
X152779255Y-101985368D01*
X152949522Y-101925789D01*
X153102262Y-101829816D01*
X153229816Y-101702262D01*
X153325789Y-101549522D01*
X153385368Y-101379255D01*
X153405565Y-101200000D01*
X153385368Y-101020745D01*
X153325789Y-100850478D01*
X153229816Y-100697738D01*
X153102262Y-100570184D01*
X153091117Y-100563181D01*
X152949523Y-100474211D01*
X152779254Y-100414631D01*
X152779249Y-100414630D01*
X152600004Y-100394435D01*
X152599996Y-100394435D01*
X152420750Y-100414630D01*
X152420745Y-100414631D01*
X152250476Y-100474211D01*
X152097736Y-100570185D01*
X152094903Y-100572445D01*
X152092724Y-100573334D01*
X152091842Y-100573889D01*
X152091744Y-100573734D01*
X152030217Y-100598855D01*
X152017588Y-100599500D01*
X140300097Y-100599500D01*
X140233058Y-100579815D01*
X140212416Y-100563181D01*
X138036819Y-98387584D01*
X138003334Y-98326261D01*
X138000500Y-98299903D01*
X138000500Y-91720945D01*
X138000500Y-91720943D01*
X137959577Y-91568216D01*
X137953965Y-91558495D01*
X137880524Y-91431290D01*
X137880521Y-91431286D01*
X137880520Y-91431284D01*
X137768716Y-91319480D01*
X137768715Y-91319479D01*
X137764385Y-91315149D01*
X137764374Y-91315139D01*
X136607590Y-90158355D01*
X136607588Y-90158352D01*
X136488717Y-90039481D01*
X136488716Y-90039480D01*
X136401904Y-89989360D01*
X136401904Y-89989359D01*
X136401900Y-89989358D01*
X136351785Y-89960423D01*
X136199057Y-89919499D01*
X136040943Y-89919499D01*
X136033347Y-89919499D01*
X136033331Y-89919500D01*
X128924091Y-89919500D01*
X128857052Y-89899815D01*
X128811711Y-89847909D01*
X128809037Y-89842175D01*
X128809034Y-89842170D01*
X128809033Y-89842169D01*
X128673495Y-89648599D01*
X128673494Y-89648597D01*
X128506402Y-89481506D01*
X128506396Y-89481501D01*
X128320842Y-89351575D01*
X128277217Y-89296998D01*
X128270023Y-89227500D01*
X128301546Y-89165145D01*
X128320842Y-89148425D01*
X128343026Y-89132891D01*
X128506401Y-89018495D01*
X128673495Y-88851401D01*
X128809035Y-88657830D01*
X128908903Y-88443663D01*
X128970063Y-88215408D01*
X128990659Y-87980000D01*
X128970063Y-87744592D01*
X128908903Y-87516337D01*
X128809035Y-87302171D01*
X128702835Y-87150500D01*
X128673494Y-87108597D01*
X128506402Y-86941506D01*
X128506396Y-86941501D01*
X128320842Y-86811575D01*
X128277217Y-86756998D01*
X128270023Y-86687500D01*
X128301546Y-86625145D01*
X128320842Y-86608425D01*
X128343026Y-86592891D01*
X128506401Y-86478495D01*
X128673495Y-86311401D01*
X128809035Y-86117830D01*
X128908903Y-85903663D01*
X128970063Y-85675408D01*
X128990659Y-85440000D01*
X128977121Y-85285258D01*
X136449500Y-85285258D01*
X136449500Y-85514741D01*
X136470654Y-85675413D01*
X136479452Y-85742238D01*
X136523311Y-85905925D01*
X136538842Y-85963887D01*
X136626650Y-86175876D01*
X136626657Y-86175890D01*
X136741392Y-86374617D01*
X136881081Y-86556661D01*
X136881089Y-86556670D01*
X137043330Y-86718911D01*
X137043338Y-86718918D01*
X137225382Y-86858607D01*
X137225385Y-86858608D01*
X137225388Y-86858611D01*
X137424112Y-86973344D01*
X137424117Y-86973346D01*
X137424123Y-86973349D01*
X137515480Y-87011190D01*
X137636113Y-87061158D01*
X137857762Y-87120548D01*
X138085266Y-87150500D01*
X138085273Y-87150500D01*
X138314727Y-87150500D01*
X138314734Y-87150500D01*
X138542238Y-87120548D01*
X138763887Y-87061158D01*
X138975888Y-86973344D01*
X139174612Y-86858611D01*
X139356661Y-86718919D01*
X139356665Y-86718914D01*
X139356670Y-86718911D01*
X139518911Y-86556670D01*
X139518914Y-86556665D01*
X139518919Y-86556661D01*
X139658611Y-86374612D01*
X139773344Y-86175888D01*
X139861158Y-85963887D01*
X139920548Y-85742238D01*
X139950500Y-85514734D01*
X139950500Y-85285266D01*
X139920548Y-85057762D01*
X139861158Y-84836113D01*
X139773344Y-84624112D01*
X139658611Y-84425388D01*
X139658608Y-84425385D01*
X139658607Y-84425382D01*
X139531640Y-84259917D01*
X139518919Y-84243339D01*
X139518918Y-84243338D01*
X139518911Y-84243330D01*
X139356670Y-84081089D01*
X139356661Y-84081081D01*
X139174617Y-83941392D01*
X138975890Y-83826657D01*
X138975876Y-83826650D01*
X138763887Y-83738842D01*
X138542238Y-83679452D01*
X138504215Y-83674446D01*
X138314741Y-83649500D01*
X138314734Y-83649500D01*
X138085266Y-83649500D01*
X138085258Y-83649500D01*
X137868715Y-83678009D01*
X137857762Y-83679452D01*
X137764076Y-83704554D01*
X137636112Y-83738842D01*
X137424123Y-83826650D01*
X137424109Y-83826657D01*
X137225382Y-83941392D01*
X137043338Y-84081081D01*
X136881081Y-84243338D01*
X136741392Y-84425382D01*
X136626657Y-84624109D01*
X136626650Y-84624123D01*
X136538842Y-84836112D01*
X136479453Y-85057759D01*
X136479451Y-85057770D01*
X136449500Y-85285258D01*
X128977121Y-85285258D01*
X128970063Y-85204592D01*
X128908903Y-84976337D01*
X128809035Y-84762171D01*
X128712365Y-84624112D01*
X128673496Y-84568600D01*
X128673495Y-84568599D01*
X128551567Y-84446671D01*
X128518084Y-84385351D01*
X128523068Y-84315659D01*
X128564939Y-84259725D01*
X128595915Y-84242810D01*
X128727331Y-84193796D01*
X128842546Y-84107546D01*
X128928796Y-83992331D01*
X128979091Y-83857483D01*
X128985500Y-83797873D01*
X128985499Y-82002128D01*
X128979091Y-81942517D01*
X128928796Y-81807669D01*
X128928795Y-81807668D01*
X128928793Y-81807664D01*
X128842547Y-81692455D01*
X128842544Y-81692452D01*
X128727335Y-81606206D01*
X128727328Y-81606202D01*
X128592482Y-81555908D01*
X128592483Y-81555908D01*
X128532883Y-81549501D01*
X128532881Y-81549500D01*
X128532873Y-81549500D01*
X128532864Y-81549500D01*
X126737129Y-81549500D01*
X126737123Y-81549501D01*
X126677516Y-81555908D01*
X126542671Y-81606202D01*
X126542664Y-81606206D01*
X126427455Y-81692452D01*
X126373766Y-81764171D01*
X126317832Y-81806041D01*
X126248140Y-81811025D01*
X126186817Y-81777539D01*
X126153333Y-81716215D01*
X126150500Y-81689859D01*
X126150500Y-78474500D01*
X126170185Y-78407461D01*
X126222989Y-78361706D01*
X126274500Y-78350500D01*
X164525500Y-78350500D01*
X164592539Y-78370185D01*
G37*
%TD.AperFunction*%
%TD*%
M02*
