%TF.GenerationSoftware,KiCad,Pcbnew,8.0.4*%
%TF.CreationDate,2026-02-07T19:25:16+01:00*%
%TF.ProjectId,sensor,73656e73-6f72-42e6-9b69-6361645f7063,rev?*%
%TF.SameCoordinates,Original*%
%TF.FileFunction,Soldermask,Top*%
%TF.FilePolarity,Negative*%
%FSLAX46Y46*%
G04 Gerber Fmt 4.6, Leading zero omitted, Abs format (unit mm)*
G04 Created by KiCad (PCBNEW 8.0.4) date 2026-02-07 19:25:16*
%MOMM*%
%LPD*%
G01*
G04 APERTURE LIST*
G04 Aperture macros list*
%AMRoundRect*
0 Rectangle with rounded corners*
0 $1 Rounding radius*
0 $2 $3 $4 $5 $6 $7 $8 $9 X,Y pos of 4 corners*
0 Add a 4 corners polygon primitive as box body*
4,1,4,$2,$3,$4,$5,$6,$7,$8,$9,$2,$3,0*
0 Add four circle primitives for the rounded corners*
1,1,$1+$1,$2,$3*
1,1,$1+$1,$4,$5*
1,1,$1+$1,$6,$7*
1,1,$1+$1,$8,$9*
0 Add four rect primitives between the rounded corners*
20,1,$1+$1,$2,$3,$4,$5,0*
20,1,$1+$1,$4,$5,$6,$7,0*
20,1,$1+$1,$6,$7,$8,$9,0*
20,1,$1+$1,$8,$9,$2,$3,0*%
G04 Aperture macros list end*
%ADD10RoundRect,0.250000X-0.475000X0.250000X-0.475000X-0.250000X0.475000X-0.250000X0.475000X0.250000X0*%
%ADD11R,1.700000X1.700000*%
%ADD12O,1.700000X1.700000*%
%ADD13RoundRect,0.250000X0.250000X0.475000X-0.250000X0.475000X-0.250000X-0.475000X0.250000X-0.475000X0*%
%ADD14RoundRect,0.250000X0.262500X0.450000X-0.262500X0.450000X-0.262500X-0.450000X0.262500X-0.450000X0*%
%ADD15RoundRect,0.250000X-0.250000X-0.475000X0.250000X-0.475000X0.250000X0.475000X-0.250000X0.475000X0*%
%ADD16R,1.500000X1.500000*%
%ADD17C,1.500000*%
%ADD18RoundRect,0.250000X-0.262500X-0.450000X0.262500X-0.450000X0.262500X0.450000X-0.262500X0.450000X0*%
%ADD19RoundRect,0.250000X0.450000X-0.262500X0.450000X0.262500X-0.450000X0.262500X-0.450000X-0.262500X0*%
%ADD20RoundRect,0.250000X1.250000X0.550000X-1.250000X0.550000X-1.250000X-0.550000X1.250000X-0.550000X0*%
%ADD21RoundRect,0.243750X-0.243750X-0.456250X0.243750X-0.456250X0.243750X0.456250X-0.243750X0.456250X0*%
%ADD22RoundRect,0.250000X-0.450000X0.262500X-0.450000X-0.262500X0.450000X-0.262500X0.450000X0.262500X0*%
%ADD23RoundRect,0.200000X-0.200000X0.750000X-0.200000X-0.750000X0.200000X-0.750000X0.200000X0.750000X0*%
%ADD24RoundRect,0.250000X-0.350000X0.850000X-0.350000X-0.850000X0.350000X-0.850000X0.350000X0.850000X0*%
%ADD25RoundRect,0.249997X-2.650003X2.950003X-2.650003X-2.950003X2.650003X-2.950003X2.650003X2.950003X0*%
%ADD26C,3.000000*%
%ADD27RoundRect,0.150000X-0.150000X0.825000X-0.150000X-0.825000X0.150000X-0.825000X0.150000X0.825000X0*%
%ADD28RoundRect,0.250000X-0.550000X1.250000X-0.550000X-1.250000X0.550000X-1.250000X0.550000X1.250000X0*%
%ADD29R,1.200000X1.200000*%
%ADD30R,1.050000X1.500000*%
%ADD31O,1.050000X1.500000*%
G04 APERTURE END LIST*
D10*
%TO.C,C4*%
X154800000Y-103050000D03*
X154800000Y-104950000D03*
%TD*%
D11*
%TO.C,U1*%
X127635000Y-82900000D03*
D12*
X127635000Y-85440000D03*
X127635000Y-87980000D03*
X127635000Y-90520000D03*
X127635000Y-93060000D03*
X127635000Y-95600000D03*
X127635000Y-98140000D03*
X143800000Y-98140000D03*
X143800000Y-95600000D03*
X143800000Y-93060000D03*
X143800000Y-90520000D03*
X143800000Y-87980000D03*
X143800000Y-85440000D03*
D11*
X143800000Y-82900000D03*
%TD*%
D13*
%TO.C,C1*%
X130550000Y-103000000D03*
X128650000Y-103000000D03*
%TD*%
D14*
%TO.C,R3*%
X150912500Y-108600000D03*
X149087500Y-108600000D03*
%TD*%
D15*
%TO.C,R8*%
X151250000Y-97400000D03*
X153150000Y-97400000D03*
%TD*%
D13*
%TO.C,R2*%
X134550000Y-103000000D03*
X132650000Y-103000000D03*
%TD*%
D16*
%TO.C,U4*%
X133910000Y-107710000D03*
D17*
X136450000Y-107710000D03*
X138990000Y-107710000D03*
X141530000Y-107710000D03*
%TD*%
D18*
%TO.C,R1*%
X136487500Y-103000000D03*
X138312500Y-103000000D03*
%TD*%
D11*
%TO.C,J1*%
X129050000Y-108947500D03*
D12*
X129050000Y-106407500D03*
%TD*%
D19*
%TO.C,R4*%
X152800000Y-110912500D03*
X152800000Y-109087500D03*
%TD*%
D14*
%TO.C,R6*%
X156512500Y-108600000D03*
X154687500Y-108600000D03*
%TD*%
D20*
%TO.C,C3*%
X153400000Y-92000000D03*
X149000000Y-92000000D03*
%TD*%
D21*
%TO.C,D2*%
X147862500Y-97400000D03*
X149737500Y-97400000D03*
%TD*%
D22*
%TO.C,R5*%
X133800000Y-112487500D03*
X133800000Y-114312500D03*
%TD*%
D23*
%TO.C,Q4*%
X150800000Y-110900000D03*
X148900000Y-110900000D03*
X149850000Y-113900000D03*
%TD*%
D24*
%TO.C,U3*%
X162000000Y-82200000D03*
D25*
X159720000Y-88500000D03*
D24*
X157440000Y-82200000D03*
%TD*%
D26*
%TO.C,REF\u002A\u002A*%
X138200000Y-85400000D03*
%TD*%
D27*
%TO.C,U2*%
X152600000Y-99800000D03*
X151330000Y-99800000D03*
X150060000Y-99800000D03*
X148790000Y-99800000D03*
X148790000Y-104750000D03*
X150060000Y-104750000D03*
X151330000Y-104750000D03*
X152600000Y-104750000D03*
%TD*%
D23*
%TO.C,Q1*%
X156550000Y-111000000D03*
X154650000Y-111000000D03*
X155600000Y-114000000D03*
%TD*%
D28*
%TO.C,C2*%
X151200000Y-82200000D03*
X151200000Y-86600000D03*
%TD*%
D29*
%TO.C,D1*%
X161800000Y-109675000D03*
X161800000Y-112475000D03*
%TD*%
D30*
%TO.C,U5*%
X128600000Y-113600000D03*
D31*
X129870000Y-113600000D03*
X131140000Y-113600000D03*
%TD*%
D11*
%TO.C,J2*%
X128175000Y-117800000D03*
D12*
X130715000Y-117800000D03*
X133255000Y-117800000D03*
X135795000Y-117800000D03*
X138335000Y-117800000D03*
X140875000Y-117800000D03*
X143415000Y-117800000D03*
%TD*%
D19*
%TO.C,R7*%
X158600000Y-110912500D03*
X158600000Y-109087500D03*
%TD*%
M02*
