M48
; DRILL file {KiCad 8.0.4} date 2026-02-07T19:25:42+0100
; FORMAT={-:-/ absolute / metric / decimal}
; #@! TF.CreationDate,2026-02-07T19:25:42+01:00
; #@! TF.GenerationSoftware,Kicad,Pcbnew,8.0.4
; #@! TF.FileFunction,MixedPlating,1,2
FMAT,2
METRIC
; #@! TA.AperFunction,Plated,PTH,ViaDrill
T1C0.300
; #@! TA.AperFunction,Plated,PTH,ComponentDrill
T2C0.750
; #@! TA.AperFunction,Plated,PTH,ComponentDrill
T3C0.800
; #@! TA.AperFunction,Plated,PTH,ComponentDrill
T4C1.000
; #@! TA.AperFunction,NonPlated,NPTH,ComponentDrill
T5C3.000
%
G90
G05
T1
X148.8Y-101.8
X149.2Y-107.4
X150.06Y-106.2
X151.4Y-102.6
X151.4Y-106.2
X152.6Y-101.2
X155.0Y-107.2
T2
X128.6Y-113.6
X129.87Y-113.6
X131.14Y-113.6
T3
X133.91Y-107.71
X136.45Y-107.71
X138.99Y-107.71
X141.53Y-107.71
T4
X127.635Y-82.9
X127.635Y-85.44
X127.635Y-87.98
X127.635Y-90.52
X127.635Y-93.06
X127.635Y-95.6
X127.635Y-98.14
X128.175Y-117.8
X129.05Y-106.407
X129.05Y-108.947
X130.715Y-117.8
X133.255Y-117.8
X135.795Y-117.8
X138.335Y-117.8
X140.875Y-117.8
X143.415Y-117.8
X143.8Y-82.9
X143.8Y-85.44
X143.8Y-87.98
X143.8Y-90.52
X143.8Y-93.06
X143.8Y-95.6
X143.8Y-98.14
T5
X138.2Y-85.4
M30
