%TF.GenerationSoftware,KiCad,Pcbnew,8.0.4*%
%TF.CreationDate,2026-02-07T19:25:43+01:00*%
%TF.ProjectId,sensor,73656e73-6f72-42e6-9b69-6361645f7063,rev?*%
%TF.SameCoordinates,Original*%
%TF.FileFunction,Drillmap*%
%TF.FilePolarity,Positive*%
%FSLAX45Y45*%
G04 Gerber Fmt 4.5, Leading zero omitted, Abs format (unit mm)*
G04 Created by KiCad (PCBNEW 8.0.4) date 2026-02-07 19:25:43*
%MOMM*%
%LPD*%
G01*
G04 APERTURE LIST*
%ADD10C,0.050000*%
%ADD11C,0.200000*%
%ADD12C,0.100000*%
%ADD13C,0.300000*%
G04 APERTURE END LIST*
D10*
X12560000Y-7780000D02*
X16520000Y-7780000D01*
X16520000Y-12040000D01*
X12560000Y-12040000D01*
X12560000Y-7780000D01*
D11*
D12*
X14865000Y-10165000D02*
X14895000Y-10195000D01*
X14895000Y-10165000D02*
X14865000Y-10195000D01*
X14905000Y-10725000D02*
X14935000Y-10755000D01*
X14935000Y-10725000D02*
X14905000Y-10755000D01*
X14991000Y-10605000D02*
X15021000Y-10635000D01*
X15021000Y-10605000D02*
X14991000Y-10635000D01*
X15125000Y-10245000D02*
X15155000Y-10275000D01*
X15155000Y-10245000D02*
X15125000Y-10275000D01*
X15125000Y-10605000D02*
X15155000Y-10635000D01*
X15155000Y-10605000D02*
X15125000Y-10635000D01*
X15245000Y-10105000D02*
X15275000Y-10135000D01*
X15275000Y-10105000D02*
X15245000Y-10135000D01*
X15485000Y-10705000D02*
X15515000Y-10735000D01*
X15515000Y-10705000D02*
X15485000Y-10735000D01*
X12897500Y-11360000D02*
G75*
G02*
X12822500Y-11360000I-37500J0D01*
G01*
X12822500Y-11360000D02*
G75*
G02*
X12897500Y-11360000I37500J0D01*
G01*
X13024500Y-11360000D02*
G75*
G02*
X12949500Y-11360000I-37500J0D01*
G01*
X12949500Y-11360000D02*
G75*
G02*
X13024500Y-11360000I37500J0D01*
G01*
X13151500Y-11360000D02*
G75*
G02*
X13076500Y-11360000I-37500J0D01*
G01*
X13076500Y-11360000D02*
G75*
G02*
X13151500Y-11360000I37500J0D01*
G01*
X13391000Y-10731000D02*
X13391000Y-10811000D01*
X13351000Y-10771000D02*
X13431000Y-10771000D01*
X13645000Y-10731000D02*
X13645000Y-10811000D01*
X13605000Y-10771000D02*
X13685000Y-10771000D01*
X13899000Y-10731000D02*
X13899000Y-10811000D01*
X13859000Y-10771000D02*
X13939000Y-10771000D01*
X14153000Y-10731000D02*
X14153000Y-10811000D01*
X14113000Y-10771000D02*
X14193000Y-10771000D01*
X12798856Y-8325356D02*
X12798856Y-8254644D01*
X12728144Y-8254644D01*
X12728144Y-8325356D01*
X12798856Y-8325356D01*
X12798856Y-8579356D02*
X12798856Y-8508644D01*
X12728144Y-8508644D01*
X12728144Y-8579356D01*
X12798856Y-8579356D01*
X12798856Y-8833356D02*
X12798856Y-8762644D01*
X12728144Y-8762644D01*
X12728144Y-8833356D01*
X12798856Y-8833356D01*
X12798856Y-9087356D02*
X12798856Y-9016644D01*
X12728144Y-9016644D01*
X12728144Y-9087356D01*
X12798856Y-9087356D01*
X12798856Y-9341356D02*
X12798856Y-9270644D01*
X12728144Y-9270644D01*
X12728144Y-9341356D01*
X12798856Y-9341356D01*
X12798856Y-9595356D02*
X12798856Y-9524644D01*
X12728144Y-9524644D01*
X12728144Y-9595356D01*
X12798856Y-9595356D01*
X12798856Y-9849356D02*
X12798856Y-9778644D01*
X12728144Y-9778644D01*
X12728144Y-9849356D01*
X12798856Y-9849356D01*
X12852856Y-11815356D02*
X12852856Y-11744644D01*
X12782144Y-11744644D01*
X12782144Y-11815356D01*
X12852856Y-11815356D01*
X12940356Y-10676106D02*
X12940356Y-10605394D01*
X12869644Y-10605394D01*
X12869644Y-10676106D01*
X12940356Y-10676106D01*
X12940356Y-10930106D02*
X12940356Y-10859394D01*
X12869644Y-10859394D01*
X12869644Y-10930106D01*
X12940356Y-10930106D01*
X13106856Y-11815356D02*
X13106856Y-11744644D01*
X13036144Y-11744644D01*
X13036144Y-11815356D01*
X13106856Y-11815356D01*
X13360856Y-11815356D02*
X13360856Y-11744644D01*
X13290144Y-11744644D01*
X13290144Y-11815356D01*
X13360856Y-11815356D01*
X13614856Y-11815356D02*
X13614856Y-11744644D01*
X13544144Y-11744644D01*
X13544144Y-11815356D01*
X13614856Y-11815356D01*
X13868856Y-11815356D02*
X13868856Y-11744644D01*
X13798144Y-11744644D01*
X13798144Y-11815356D01*
X13868856Y-11815356D01*
X14122856Y-11815356D02*
X14122856Y-11744644D01*
X14052144Y-11744644D01*
X14052144Y-11815356D01*
X14122856Y-11815356D01*
X14376856Y-11815356D02*
X14376856Y-11744644D01*
X14306144Y-11744644D01*
X14306144Y-11815356D01*
X14376856Y-11815356D01*
X14415356Y-8325356D02*
X14415356Y-8254644D01*
X14344644Y-8254644D01*
X14344644Y-8325356D01*
X14415356Y-8325356D01*
X14415356Y-8579356D02*
X14415356Y-8508644D01*
X14344644Y-8508644D01*
X14344644Y-8579356D01*
X14415356Y-8579356D01*
X14415356Y-8833356D02*
X14415356Y-8762644D01*
X14344644Y-8762644D01*
X14344644Y-8833356D01*
X14415356Y-8833356D01*
X14415356Y-9087356D02*
X14415356Y-9016644D01*
X14344644Y-9016644D01*
X14344644Y-9087356D01*
X14415356Y-9087356D01*
X14415356Y-9341356D02*
X14415356Y-9270644D01*
X14344644Y-9270644D01*
X14344644Y-9341356D01*
X14415356Y-9341356D01*
X14415356Y-9595356D02*
X14415356Y-9524644D01*
X14344644Y-9524644D01*
X14344644Y-9595356D01*
X14415356Y-9595356D01*
X14415356Y-9849356D02*
X14415356Y-9778644D01*
X14344644Y-9778644D01*
X14344644Y-9849356D01*
X14415356Y-9849356D01*
D13*
X13820000Y-8690000D02*
X13970000Y-8540000D01*
X13820000Y-8390000D01*
X13670000Y-8540000D01*
X13820000Y-8690000D01*
D11*
X12818277Y-12353984D02*
X12818277Y-12153984D01*
X12818277Y-12153984D02*
X12865896Y-12153984D01*
X12865896Y-12153984D02*
X12894467Y-12163508D01*
X12894467Y-12163508D02*
X12913515Y-12182555D01*
X12913515Y-12182555D02*
X12923039Y-12201603D01*
X12923039Y-12201603D02*
X12932562Y-12239698D01*
X12932562Y-12239698D02*
X12932562Y-12268269D01*
X12932562Y-12268269D02*
X12923039Y-12306365D01*
X12923039Y-12306365D02*
X12913515Y-12325412D01*
X12913515Y-12325412D02*
X12894467Y-12344460D01*
X12894467Y-12344460D02*
X12865896Y-12353984D01*
X12865896Y-12353984D02*
X12818277Y-12353984D01*
X13018277Y-12353984D02*
X13018277Y-12220650D01*
X13018277Y-12258746D02*
X13027801Y-12239698D01*
X13027801Y-12239698D02*
X13037324Y-12230174D01*
X13037324Y-12230174D02*
X13056372Y-12220650D01*
X13056372Y-12220650D02*
X13075420Y-12220650D01*
X13142086Y-12353984D02*
X13142086Y-12220650D01*
X13142086Y-12153984D02*
X13132562Y-12163508D01*
X13132562Y-12163508D02*
X13142086Y-12173031D01*
X13142086Y-12173031D02*
X13151610Y-12163508D01*
X13151610Y-12163508D02*
X13142086Y-12153984D01*
X13142086Y-12153984D02*
X13142086Y-12173031D01*
X13265896Y-12353984D02*
X13246848Y-12344460D01*
X13246848Y-12344460D02*
X13237324Y-12325412D01*
X13237324Y-12325412D02*
X13237324Y-12153984D01*
X13370658Y-12353984D02*
X13351610Y-12344460D01*
X13351610Y-12344460D02*
X13342086Y-12325412D01*
X13342086Y-12325412D02*
X13342086Y-12153984D01*
X13599229Y-12353984D02*
X13599229Y-12153984D01*
X13599229Y-12153984D02*
X13665896Y-12296841D01*
X13665896Y-12296841D02*
X13732562Y-12153984D01*
X13732562Y-12153984D02*
X13732562Y-12353984D01*
X13913515Y-12353984D02*
X13913515Y-12249222D01*
X13913515Y-12249222D02*
X13903991Y-12230174D01*
X13903991Y-12230174D02*
X13884943Y-12220650D01*
X13884943Y-12220650D02*
X13846848Y-12220650D01*
X13846848Y-12220650D02*
X13827801Y-12230174D01*
X13913515Y-12344460D02*
X13894467Y-12353984D01*
X13894467Y-12353984D02*
X13846848Y-12353984D01*
X13846848Y-12353984D02*
X13827801Y-12344460D01*
X13827801Y-12344460D02*
X13818277Y-12325412D01*
X13818277Y-12325412D02*
X13818277Y-12306365D01*
X13818277Y-12306365D02*
X13827801Y-12287317D01*
X13827801Y-12287317D02*
X13846848Y-12277793D01*
X13846848Y-12277793D02*
X13894467Y-12277793D01*
X13894467Y-12277793D02*
X13913515Y-12268269D01*
X14008753Y-12220650D02*
X14008753Y-12420650D01*
X14008753Y-12230174D02*
X14027801Y-12220650D01*
X14027801Y-12220650D02*
X14065896Y-12220650D01*
X14065896Y-12220650D02*
X14084943Y-12230174D01*
X14084943Y-12230174D02*
X14094467Y-12239698D01*
X14094467Y-12239698D02*
X14103991Y-12258746D01*
X14103991Y-12258746D02*
X14103991Y-12315888D01*
X14103991Y-12315888D02*
X14094467Y-12334936D01*
X14094467Y-12334936D02*
X14084943Y-12344460D01*
X14084943Y-12344460D02*
X14065896Y-12353984D01*
X14065896Y-12353984D02*
X14027801Y-12353984D01*
X14027801Y-12353984D02*
X14008753Y-12344460D01*
X14189705Y-12334936D02*
X14199229Y-12344460D01*
X14199229Y-12344460D02*
X14189705Y-12353984D01*
X14189705Y-12353984D02*
X14180182Y-12344460D01*
X14180182Y-12344460D02*
X14189705Y-12334936D01*
X14189705Y-12334936D02*
X14189705Y-12353984D01*
X14189705Y-12230174D02*
X14199229Y-12239698D01*
X14199229Y-12239698D02*
X14189705Y-12249222D01*
X14189705Y-12249222D02*
X14180182Y-12239698D01*
X14180182Y-12239698D02*
X14189705Y-12230174D01*
X14189705Y-12230174D02*
X14189705Y-12249222D01*
D12*
X12527500Y-12667500D02*
X12557500Y-12697500D01*
X12557500Y-12667500D02*
X12527500Y-12697500D01*
D11*
X12856372Y-12573984D02*
X12875420Y-12573984D01*
X12875420Y-12573984D02*
X12894467Y-12583508D01*
X12894467Y-12583508D02*
X12903991Y-12593031D01*
X12903991Y-12593031D02*
X12913515Y-12612079D01*
X12913515Y-12612079D02*
X12923039Y-12650174D01*
X12923039Y-12650174D02*
X12923039Y-12697793D01*
X12923039Y-12697793D02*
X12913515Y-12735888D01*
X12913515Y-12735888D02*
X12903991Y-12754936D01*
X12903991Y-12754936D02*
X12894467Y-12764460D01*
X12894467Y-12764460D02*
X12875420Y-12773984D01*
X12875420Y-12773984D02*
X12856372Y-12773984D01*
X12856372Y-12773984D02*
X12837324Y-12764460D01*
X12837324Y-12764460D02*
X12827801Y-12754936D01*
X12827801Y-12754936D02*
X12818277Y-12735888D01*
X12818277Y-12735888D02*
X12808753Y-12697793D01*
X12808753Y-12697793D02*
X12808753Y-12650174D01*
X12808753Y-12650174D02*
X12818277Y-12612079D01*
X12818277Y-12612079D02*
X12827801Y-12593031D01*
X12827801Y-12593031D02*
X12837324Y-12583508D01*
X12837324Y-12583508D02*
X12856372Y-12573984D01*
X13008753Y-12754936D02*
X13018277Y-12764460D01*
X13018277Y-12764460D02*
X13008753Y-12773984D01*
X13008753Y-12773984D02*
X12999229Y-12764460D01*
X12999229Y-12764460D02*
X13008753Y-12754936D01*
X13008753Y-12754936D02*
X13008753Y-12773984D01*
X13084943Y-12573984D02*
X13208753Y-12573984D01*
X13208753Y-12573984D02*
X13142086Y-12650174D01*
X13142086Y-12650174D02*
X13170658Y-12650174D01*
X13170658Y-12650174D02*
X13189705Y-12659698D01*
X13189705Y-12659698D02*
X13199229Y-12669222D01*
X13199229Y-12669222D02*
X13208753Y-12688269D01*
X13208753Y-12688269D02*
X13208753Y-12735888D01*
X13208753Y-12735888D02*
X13199229Y-12754936D01*
X13199229Y-12754936D02*
X13189705Y-12764460D01*
X13189705Y-12764460D02*
X13170658Y-12773984D01*
X13170658Y-12773984D02*
X13113515Y-12773984D01*
X13113515Y-12773984D02*
X13094467Y-12764460D01*
X13094467Y-12764460D02*
X13084943Y-12754936D01*
X13332562Y-12573984D02*
X13351610Y-12573984D01*
X13351610Y-12573984D02*
X13370658Y-12583508D01*
X13370658Y-12583508D02*
X13380182Y-12593031D01*
X13380182Y-12593031D02*
X13389705Y-12612079D01*
X13389705Y-12612079D02*
X13399229Y-12650174D01*
X13399229Y-12650174D02*
X13399229Y-12697793D01*
X13399229Y-12697793D02*
X13389705Y-12735888D01*
X13389705Y-12735888D02*
X13380182Y-12754936D01*
X13380182Y-12754936D02*
X13370658Y-12764460D01*
X13370658Y-12764460D02*
X13351610Y-12773984D01*
X13351610Y-12773984D02*
X13332562Y-12773984D01*
X13332562Y-12773984D02*
X13313515Y-12764460D01*
X13313515Y-12764460D02*
X13303991Y-12754936D01*
X13303991Y-12754936D02*
X13294467Y-12735888D01*
X13294467Y-12735888D02*
X13284943Y-12697793D01*
X13284943Y-12697793D02*
X13284943Y-12650174D01*
X13284943Y-12650174D02*
X13294467Y-12612079D01*
X13294467Y-12612079D02*
X13303991Y-12593031D01*
X13303991Y-12593031D02*
X13313515Y-12583508D01*
X13313515Y-12583508D02*
X13332562Y-12573984D01*
X13523039Y-12573984D02*
X13542086Y-12573984D01*
X13542086Y-12573984D02*
X13561134Y-12583508D01*
X13561134Y-12583508D02*
X13570658Y-12593031D01*
X13570658Y-12593031D02*
X13580182Y-12612079D01*
X13580182Y-12612079D02*
X13589705Y-12650174D01*
X13589705Y-12650174D02*
X13589705Y-12697793D01*
X13589705Y-12697793D02*
X13580182Y-12735888D01*
X13580182Y-12735888D02*
X13570658Y-12754936D01*
X13570658Y-12754936D02*
X13561134Y-12764460D01*
X13561134Y-12764460D02*
X13542086Y-12773984D01*
X13542086Y-12773984D02*
X13523039Y-12773984D01*
X13523039Y-12773984D02*
X13503991Y-12764460D01*
X13503991Y-12764460D02*
X13494467Y-12754936D01*
X13494467Y-12754936D02*
X13484943Y-12735888D01*
X13484943Y-12735888D02*
X13475420Y-12697793D01*
X13475420Y-12697793D02*
X13475420Y-12650174D01*
X13475420Y-12650174D02*
X13484943Y-12612079D01*
X13484943Y-12612079D02*
X13494467Y-12593031D01*
X13494467Y-12593031D02*
X13503991Y-12583508D01*
X13503991Y-12583508D02*
X13523039Y-12573984D01*
X13675420Y-12773984D02*
X13675420Y-12640650D01*
X13675420Y-12659698D02*
X13684943Y-12650174D01*
X13684943Y-12650174D02*
X13703991Y-12640650D01*
X13703991Y-12640650D02*
X13732563Y-12640650D01*
X13732563Y-12640650D02*
X13751610Y-12650174D01*
X13751610Y-12650174D02*
X13761134Y-12669222D01*
X13761134Y-12669222D02*
X13761134Y-12773984D01*
X13761134Y-12669222D02*
X13770658Y-12650174D01*
X13770658Y-12650174D02*
X13789705Y-12640650D01*
X13789705Y-12640650D02*
X13818277Y-12640650D01*
X13818277Y-12640650D02*
X13837324Y-12650174D01*
X13837324Y-12650174D02*
X13846848Y-12669222D01*
X13846848Y-12669222D02*
X13846848Y-12773984D01*
X13942086Y-12773984D02*
X13942086Y-12640650D01*
X13942086Y-12659698D02*
X13951610Y-12650174D01*
X13951610Y-12650174D02*
X13970658Y-12640650D01*
X13970658Y-12640650D02*
X13999229Y-12640650D01*
X13999229Y-12640650D02*
X14018277Y-12650174D01*
X14018277Y-12650174D02*
X14027801Y-12669222D01*
X14027801Y-12669222D02*
X14027801Y-12773984D01*
X14027801Y-12669222D02*
X14037324Y-12650174D01*
X14037324Y-12650174D02*
X14056372Y-12640650D01*
X14056372Y-12640650D02*
X14084943Y-12640650D01*
X14084943Y-12640650D02*
X14103991Y-12650174D01*
X14103991Y-12650174D02*
X14113515Y-12669222D01*
X14113515Y-12669222D02*
X14113515Y-12773984D01*
X14503991Y-12564460D02*
X14332563Y-12821603D01*
X14761134Y-12573984D02*
X14780182Y-12573984D01*
X14780182Y-12573984D02*
X14799229Y-12583508D01*
X14799229Y-12583508D02*
X14808753Y-12593031D01*
X14808753Y-12593031D02*
X14818277Y-12612079D01*
X14818277Y-12612079D02*
X14827801Y-12650174D01*
X14827801Y-12650174D02*
X14827801Y-12697793D01*
X14827801Y-12697793D02*
X14818277Y-12735888D01*
X14818277Y-12735888D02*
X14808753Y-12754936D01*
X14808753Y-12754936D02*
X14799229Y-12764460D01*
X14799229Y-12764460D02*
X14780182Y-12773984D01*
X14780182Y-12773984D02*
X14761134Y-12773984D01*
X14761134Y-12773984D02*
X14742086Y-12764460D01*
X14742086Y-12764460D02*
X14732563Y-12754936D01*
X14732563Y-12754936D02*
X14723039Y-12735888D01*
X14723039Y-12735888D02*
X14713515Y-12697793D01*
X14713515Y-12697793D02*
X14713515Y-12650174D01*
X14713515Y-12650174D02*
X14723039Y-12612079D01*
X14723039Y-12612079D02*
X14732563Y-12593031D01*
X14732563Y-12593031D02*
X14742086Y-12583508D01*
X14742086Y-12583508D02*
X14761134Y-12573984D01*
X14913515Y-12754936D02*
X14923039Y-12764460D01*
X14923039Y-12764460D02*
X14913515Y-12773984D01*
X14913515Y-12773984D02*
X14903991Y-12764460D01*
X14903991Y-12764460D02*
X14913515Y-12754936D01*
X14913515Y-12754936D02*
X14913515Y-12773984D01*
X15046848Y-12573984D02*
X15065896Y-12573984D01*
X15065896Y-12573984D02*
X15084944Y-12583508D01*
X15084944Y-12583508D02*
X15094467Y-12593031D01*
X15094467Y-12593031D02*
X15103991Y-12612079D01*
X15103991Y-12612079D02*
X15113515Y-12650174D01*
X15113515Y-12650174D02*
X15113515Y-12697793D01*
X15113515Y-12697793D02*
X15103991Y-12735888D01*
X15103991Y-12735888D02*
X15094467Y-12754936D01*
X15094467Y-12754936D02*
X15084944Y-12764460D01*
X15084944Y-12764460D02*
X15065896Y-12773984D01*
X15065896Y-12773984D02*
X15046848Y-12773984D01*
X15046848Y-12773984D02*
X15027801Y-12764460D01*
X15027801Y-12764460D02*
X15018277Y-12754936D01*
X15018277Y-12754936D02*
X15008753Y-12735888D01*
X15008753Y-12735888D02*
X14999229Y-12697793D01*
X14999229Y-12697793D02*
X14999229Y-12650174D01*
X14999229Y-12650174D02*
X15008753Y-12612079D01*
X15008753Y-12612079D02*
X15018277Y-12593031D01*
X15018277Y-12593031D02*
X15027801Y-12583508D01*
X15027801Y-12583508D02*
X15046848Y-12573984D01*
X15303991Y-12773984D02*
X15189706Y-12773984D01*
X15246848Y-12773984D02*
X15246848Y-12573984D01*
X15246848Y-12573984D02*
X15227801Y-12602555D01*
X15227801Y-12602555D02*
X15208753Y-12621603D01*
X15208753Y-12621603D02*
X15189706Y-12631127D01*
X15494467Y-12773984D02*
X15380182Y-12773984D01*
X15437325Y-12773984D02*
X15437325Y-12573984D01*
X15437325Y-12573984D02*
X15418277Y-12602555D01*
X15418277Y-12602555D02*
X15399229Y-12621603D01*
X15399229Y-12621603D02*
X15380182Y-12631127D01*
X15608753Y-12659698D02*
X15589706Y-12650174D01*
X15589706Y-12650174D02*
X15580182Y-12640650D01*
X15580182Y-12640650D02*
X15570658Y-12621603D01*
X15570658Y-12621603D02*
X15570658Y-12612079D01*
X15570658Y-12612079D02*
X15580182Y-12593031D01*
X15580182Y-12593031D02*
X15589706Y-12583508D01*
X15589706Y-12583508D02*
X15608753Y-12573984D01*
X15608753Y-12573984D02*
X15646848Y-12573984D01*
X15646848Y-12573984D02*
X15665896Y-12583508D01*
X15665896Y-12583508D02*
X15675420Y-12593031D01*
X15675420Y-12593031D02*
X15684944Y-12612079D01*
X15684944Y-12612079D02*
X15684944Y-12621603D01*
X15684944Y-12621603D02*
X15675420Y-12640650D01*
X15675420Y-12640650D02*
X15665896Y-12650174D01*
X15665896Y-12650174D02*
X15646848Y-12659698D01*
X15646848Y-12659698D02*
X15608753Y-12659698D01*
X15608753Y-12659698D02*
X15589706Y-12669222D01*
X15589706Y-12669222D02*
X15580182Y-12678746D01*
X15580182Y-12678746D02*
X15570658Y-12697793D01*
X15570658Y-12697793D02*
X15570658Y-12735888D01*
X15570658Y-12735888D02*
X15580182Y-12754936D01*
X15580182Y-12754936D02*
X15589706Y-12764460D01*
X15589706Y-12764460D02*
X15608753Y-12773984D01*
X15608753Y-12773984D02*
X15646848Y-12773984D01*
X15646848Y-12773984D02*
X15665896Y-12764460D01*
X15665896Y-12764460D02*
X15675420Y-12754936D01*
X15675420Y-12754936D02*
X15684944Y-12735888D01*
X15684944Y-12735888D02*
X15684944Y-12697793D01*
X15684944Y-12697793D02*
X15675420Y-12678746D01*
X15675420Y-12678746D02*
X15665896Y-12669222D01*
X15665896Y-12669222D02*
X15646848Y-12659698D01*
X15761134Y-12573984D02*
X15761134Y-12612079D01*
X15837325Y-12573984D02*
X15837325Y-12612079D01*
X16132563Y-12850174D02*
X16123039Y-12840650D01*
X16123039Y-12840650D02*
X16103991Y-12812079D01*
X16103991Y-12812079D02*
X16094468Y-12793031D01*
X16094468Y-12793031D02*
X16084944Y-12764460D01*
X16084944Y-12764460D02*
X16075420Y-12716841D01*
X16075420Y-12716841D02*
X16075420Y-12678746D01*
X16075420Y-12678746D02*
X16084944Y-12631127D01*
X16084944Y-12631127D02*
X16094468Y-12602555D01*
X16094468Y-12602555D02*
X16103991Y-12583508D01*
X16103991Y-12583508D02*
X16123039Y-12554936D01*
X16123039Y-12554936D02*
X16132563Y-12545412D01*
X16189706Y-12573984D02*
X16323039Y-12573984D01*
X16323039Y-12573984D02*
X16237325Y-12773984D01*
X16551610Y-12773984D02*
X16551610Y-12573984D01*
X16637325Y-12773984D02*
X16637325Y-12669222D01*
X16637325Y-12669222D02*
X16627801Y-12650174D01*
X16627801Y-12650174D02*
X16608753Y-12640650D01*
X16608753Y-12640650D02*
X16580182Y-12640650D01*
X16580182Y-12640650D02*
X16561134Y-12650174D01*
X16561134Y-12650174D02*
X16551610Y-12659698D01*
X16761134Y-12773984D02*
X16742087Y-12764460D01*
X16742087Y-12764460D02*
X16732563Y-12754936D01*
X16732563Y-12754936D02*
X16723039Y-12735888D01*
X16723039Y-12735888D02*
X16723039Y-12678746D01*
X16723039Y-12678746D02*
X16732563Y-12659698D01*
X16732563Y-12659698D02*
X16742087Y-12650174D01*
X16742087Y-12650174D02*
X16761134Y-12640650D01*
X16761134Y-12640650D02*
X16789706Y-12640650D01*
X16789706Y-12640650D02*
X16808753Y-12650174D01*
X16808753Y-12650174D02*
X16818277Y-12659698D01*
X16818277Y-12659698D02*
X16827801Y-12678746D01*
X16827801Y-12678746D02*
X16827801Y-12735888D01*
X16827801Y-12735888D02*
X16818277Y-12754936D01*
X16818277Y-12754936D02*
X16808753Y-12764460D01*
X16808753Y-12764460D02*
X16789706Y-12773984D01*
X16789706Y-12773984D02*
X16761134Y-12773984D01*
X16942087Y-12773984D02*
X16923039Y-12764460D01*
X16923039Y-12764460D02*
X16913515Y-12745412D01*
X16913515Y-12745412D02*
X16913515Y-12573984D01*
X17094468Y-12764460D02*
X17075420Y-12773984D01*
X17075420Y-12773984D02*
X17037325Y-12773984D01*
X17037325Y-12773984D02*
X17018277Y-12764460D01*
X17018277Y-12764460D02*
X17008753Y-12745412D01*
X17008753Y-12745412D02*
X17008753Y-12669222D01*
X17008753Y-12669222D02*
X17018277Y-12650174D01*
X17018277Y-12650174D02*
X17037325Y-12640650D01*
X17037325Y-12640650D02*
X17075420Y-12640650D01*
X17075420Y-12640650D02*
X17094468Y-12650174D01*
X17094468Y-12650174D02*
X17103992Y-12669222D01*
X17103992Y-12669222D02*
X17103992Y-12688269D01*
X17103992Y-12688269D02*
X17008753Y-12707317D01*
X17180182Y-12764460D02*
X17199230Y-12773984D01*
X17199230Y-12773984D02*
X17237325Y-12773984D01*
X17237325Y-12773984D02*
X17256373Y-12764460D01*
X17256373Y-12764460D02*
X17265896Y-12745412D01*
X17265896Y-12745412D02*
X17265896Y-12735888D01*
X17265896Y-12735888D02*
X17256373Y-12716841D01*
X17256373Y-12716841D02*
X17237325Y-12707317D01*
X17237325Y-12707317D02*
X17208753Y-12707317D01*
X17208753Y-12707317D02*
X17189706Y-12697793D01*
X17189706Y-12697793D02*
X17180182Y-12678746D01*
X17180182Y-12678746D02*
X17180182Y-12669222D01*
X17180182Y-12669222D02*
X17189706Y-12650174D01*
X17189706Y-12650174D02*
X17208753Y-12640650D01*
X17208753Y-12640650D02*
X17237325Y-12640650D01*
X17237325Y-12640650D02*
X17256373Y-12650174D01*
X17332563Y-12850174D02*
X17342087Y-12840650D01*
X17342087Y-12840650D02*
X17361134Y-12812079D01*
X17361134Y-12812079D02*
X17370658Y-12793031D01*
X17370658Y-12793031D02*
X17380182Y-12764460D01*
X17380182Y-12764460D02*
X17389706Y-12716841D01*
X17389706Y-12716841D02*
X17389706Y-12678746D01*
X17389706Y-12678746D02*
X17380182Y-12631127D01*
X17380182Y-12631127D02*
X17370658Y-12602555D01*
X17370658Y-12602555D02*
X17361134Y-12583508D01*
X17361134Y-12583508D02*
X17342087Y-12554936D01*
X17342087Y-12554936D02*
X17332563Y-12545412D01*
D12*
X12557500Y-12946500D02*
G75*
G02*
X12482500Y-12946500I-37500J0D01*
G01*
X12482500Y-12946500D02*
G75*
G02*
X12557500Y-12946500I37500J0D01*
G01*
D11*
X12856372Y-12837984D02*
X12875420Y-12837984D01*
X12875420Y-12837984D02*
X12894467Y-12847508D01*
X12894467Y-12847508D02*
X12903991Y-12857031D01*
X12903991Y-12857031D02*
X12913515Y-12876079D01*
X12913515Y-12876079D02*
X12923039Y-12914174D01*
X12923039Y-12914174D02*
X12923039Y-12961793D01*
X12923039Y-12961793D02*
X12913515Y-12999888D01*
X12913515Y-12999888D02*
X12903991Y-13018936D01*
X12903991Y-13018936D02*
X12894467Y-13028460D01*
X12894467Y-13028460D02*
X12875420Y-13037984D01*
X12875420Y-13037984D02*
X12856372Y-13037984D01*
X12856372Y-13037984D02*
X12837324Y-13028460D01*
X12837324Y-13028460D02*
X12827801Y-13018936D01*
X12827801Y-13018936D02*
X12818277Y-12999888D01*
X12818277Y-12999888D02*
X12808753Y-12961793D01*
X12808753Y-12961793D02*
X12808753Y-12914174D01*
X12808753Y-12914174D02*
X12818277Y-12876079D01*
X12818277Y-12876079D02*
X12827801Y-12857031D01*
X12827801Y-12857031D02*
X12837324Y-12847508D01*
X12837324Y-12847508D02*
X12856372Y-12837984D01*
X13008753Y-13018936D02*
X13018277Y-13028460D01*
X13018277Y-13028460D02*
X13008753Y-13037984D01*
X13008753Y-13037984D02*
X12999229Y-13028460D01*
X12999229Y-13028460D02*
X13008753Y-13018936D01*
X13008753Y-13018936D02*
X13008753Y-13037984D01*
X13084943Y-12837984D02*
X13218277Y-12837984D01*
X13218277Y-12837984D02*
X13132562Y-13037984D01*
X13389705Y-12837984D02*
X13294467Y-12837984D01*
X13294467Y-12837984D02*
X13284943Y-12933222D01*
X13284943Y-12933222D02*
X13294467Y-12923698D01*
X13294467Y-12923698D02*
X13313515Y-12914174D01*
X13313515Y-12914174D02*
X13361134Y-12914174D01*
X13361134Y-12914174D02*
X13380182Y-12923698D01*
X13380182Y-12923698D02*
X13389705Y-12933222D01*
X13389705Y-12933222D02*
X13399229Y-12952269D01*
X13399229Y-12952269D02*
X13399229Y-12999888D01*
X13399229Y-12999888D02*
X13389705Y-13018936D01*
X13389705Y-13018936D02*
X13380182Y-13028460D01*
X13380182Y-13028460D02*
X13361134Y-13037984D01*
X13361134Y-13037984D02*
X13313515Y-13037984D01*
X13313515Y-13037984D02*
X13294467Y-13028460D01*
X13294467Y-13028460D02*
X13284943Y-13018936D01*
X13523039Y-12837984D02*
X13542086Y-12837984D01*
X13542086Y-12837984D02*
X13561134Y-12847508D01*
X13561134Y-12847508D02*
X13570658Y-12857031D01*
X13570658Y-12857031D02*
X13580182Y-12876079D01*
X13580182Y-12876079D02*
X13589705Y-12914174D01*
X13589705Y-12914174D02*
X13589705Y-12961793D01*
X13589705Y-12961793D02*
X13580182Y-12999888D01*
X13580182Y-12999888D02*
X13570658Y-13018936D01*
X13570658Y-13018936D02*
X13561134Y-13028460D01*
X13561134Y-13028460D02*
X13542086Y-13037984D01*
X13542086Y-13037984D02*
X13523039Y-13037984D01*
X13523039Y-13037984D02*
X13503991Y-13028460D01*
X13503991Y-13028460D02*
X13494467Y-13018936D01*
X13494467Y-13018936D02*
X13484943Y-12999888D01*
X13484943Y-12999888D02*
X13475420Y-12961793D01*
X13475420Y-12961793D02*
X13475420Y-12914174D01*
X13475420Y-12914174D02*
X13484943Y-12876079D01*
X13484943Y-12876079D02*
X13494467Y-12857031D01*
X13494467Y-12857031D02*
X13503991Y-12847508D01*
X13503991Y-12847508D02*
X13523039Y-12837984D01*
X13675420Y-13037984D02*
X13675420Y-12904650D01*
X13675420Y-12923698D02*
X13684943Y-12914174D01*
X13684943Y-12914174D02*
X13703991Y-12904650D01*
X13703991Y-12904650D02*
X13732563Y-12904650D01*
X13732563Y-12904650D02*
X13751610Y-12914174D01*
X13751610Y-12914174D02*
X13761134Y-12933222D01*
X13761134Y-12933222D02*
X13761134Y-13037984D01*
X13761134Y-12933222D02*
X13770658Y-12914174D01*
X13770658Y-12914174D02*
X13789705Y-12904650D01*
X13789705Y-12904650D02*
X13818277Y-12904650D01*
X13818277Y-12904650D02*
X13837324Y-12914174D01*
X13837324Y-12914174D02*
X13846848Y-12933222D01*
X13846848Y-12933222D02*
X13846848Y-13037984D01*
X13942086Y-13037984D02*
X13942086Y-12904650D01*
X13942086Y-12923698D02*
X13951610Y-12914174D01*
X13951610Y-12914174D02*
X13970658Y-12904650D01*
X13970658Y-12904650D02*
X13999229Y-12904650D01*
X13999229Y-12904650D02*
X14018277Y-12914174D01*
X14018277Y-12914174D02*
X14027801Y-12933222D01*
X14027801Y-12933222D02*
X14027801Y-13037984D01*
X14027801Y-12933222D02*
X14037324Y-12914174D01*
X14037324Y-12914174D02*
X14056372Y-12904650D01*
X14056372Y-12904650D02*
X14084943Y-12904650D01*
X14084943Y-12904650D02*
X14103991Y-12914174D01*
X14103991Y-12914174D02*
X14113515Y-12933222D01*
X14113515Y-12933222D02*
X14113515Y-13037984D01*
X14503991Y-12828460D02*
X14332563Y-13085603D01*
X14761134Y-12837984D02*
X14780182Y-12837984D01*
X14780182Y-12837984D02*
X14799229Y-12847508D01*
X14799229Y-12847508D02*
X14808753Y-12857031D01*
X14808753Y-12857031D02*
X14818277Y-12876079D01*
X14818277Y-12876079D02*
X14827801Y-12914174D01*
X14827801Y-12914174D02*
X14827801Y-12961793D01*
X14827801Y-12961793D02*
X14818277Y-12999888D01*
X14818277Y-12999888D02*
X14808753Y-13018936D01*
X14808753Y-13018936D02*
X14799229Y-13028460D01*
X14799229Y-13028460D02*
X14780182Y-13037984D01*
X14780182Y-13037984D02*
X14761134Y-13037984D01*
X14761134Y-13037984D02*
X14742086Y-13028460D01*
X14742086Y-13028460D02*
X14732563Y-13018936D01*
X14732563Y-13018936D02*
X14723039Y-12999888D01*
X14723039Y-12999888D02*
X14713515Y-12961793D01*
X14713515Y-12961793D02*
X14713515Y-12914174D01*
X14713515Y-12914174D02*
X14723039Y-12876079D01*
X14723039Y-12876079D02*
X14732563Y-12857031D01*
X14732563Y-12857031D02*
X14742086Y-12847508D01*
X14742086Y-12847508D02*
X14761134Y-12837984D01*
X14913515Y-13018936D02*
X14923039Y-13028460D01*
X14923039Y-13028460D02*
X14913515Y-13037984D01*
X14913515Y-13037984D02*
X14903991Y-13028460D01*
X14903991Y-13028460D02*
X14913515Y-13018936D01*
X14913515Y-13018936D02*
X14913515Y-13037984D01*
X15046848Y-12837984D02*
X15065896Y-12837984D01*
X15065896Y-12837984D02*
X15084944Y-12847508D01*
X15084944Y-12847508D02*
X15094467Y-12857031D01*
X15094467Y-12857031D02*
X15103991Y-12876079D01*
X15103991Y-12876079D02*
X15113515Y-12914174D01*
X15113515Y-12914174D02*
X15113515Y-12961793D01*
X15113515Y-12961793D02*
X15103991Y-12999888D01*
X15103991Y-12999888D02*
X15094467Y-13018936D01*
X15094467Y-13018936D02*
X15084944Y-13028460D01*
X15084944Y-13028460D02*
X15065896Y-13037984D01*
X15065896Y-13037984D02*
X15046848Y-13037984D01*
X15046848Y-13037984D02*
X15027801Y-13028460D01*
X15027801Y-13028460D02*
X15018277Y-13018936D01*
X15018277Y-13018936D02*
X15008753Y-12999888D01*
X15008753Y-12999888D02*
X14999229Y-12961793D01*
X14999229Y-12961793D02*
X14999229Y-12914174D01*
X14999229Y-12914174D02*
X15008753Y-12876079D01*
X15008753Y-12876079D02*
X15018277Y-12857031D01*
X15018277Y-12857031D02*
X15027801Y-12847508D01*
X15027801Y-12847508D02*
X15046848Y-12837984D01*
X15189706Y-12857031D02*
X15199229Y-12847508D01*
X15199229Y-12847508D02*
X15218277Y-12837984D01*
X15218277Y-12837984D02*
X15265896Y-12837984D01*
X15265896Y-12837984D02*
X15284944Y-12847508D01*
X15284944Y-12847508D02*
X15294467Y-12857031D01*
X15294467Y-12857031D02*
X15303991Y-12876079D01*
X15303991Y-12876079D02*
X15303991Y-12895127D01*
X15303991Y-12895127D02*
X15294467Y-12923698D01*
X15294467Y-12923698D02*
X15180182Y-13037984D01*
X15180182Y-13037984D02*
X15303991Y-13037984D01*
X15399229Y-13037984D02*
X15437325Y-13037984D01*
X15437325Y-13037984D02*
X15456372Y-13028460D01*
X15456372Y-13028460D02*
X15465896Y-13018936D01*
X15465896Y-13018936D02*
X15484944Y-12990365D01*
X15484944Y-12990365D02*
X15494467Y-12952269D01*
X15494467Y-12952269D02*
X15494467Y-12876079D01*
X15494467Y-12876079D02*
X15484944Y-12857031D01*
X15484944Y-12857031D02*
X15475420Y-12847508D01*
X15475420Y-12847508D02*
X15456372Y-12837984D01*
X15456372Y-12837984D02*
X15418277Y-12837984D01*
X15418277Y-12837984D02*
X15399229Y-12847508D01*
X15399229Y-12847508D02*
X15389706Y-12857031D01*
X15389706Y-12857031D02*
X15380182Y-12876079D01*
X15380182Y-12876079D02*
X15380182Y-12923698D01*
X15380182Y-12923698D02*
X15389706Y-12942746D01*
X15389706Y-12942746D02*
X15399229Y-12952269D01*
X15399229Y-12952269D02*
X15418277Y-12961793D01*
X15418277Y-12961793D02*
X15456372Y-12961793D01*
X15456372Y-12961793D02*
X15475420Y-12952269D01*
X15475420Y-12952269D02*
X15484944Y-12942746D01*
X15484944Y-12942746D02*
X15494467Y-12923698D01*
X15675420Y-12837984D02*
X15580182Y-12837984D01*
X15580182Y-12837984D02*
X15570658Y-12933222D01*
X15570658Y-12933222D02*
X15580182Y-12923698D01*
X15580182Y-12923698D02*
X15599229Y-12914174D01*
X15599229Y-12914174D02*
X15646848Y-12914174D01*
X15646848Y-12914174D02*
X15665896Y-12923698D01*
X15665896Y-12923698D02*
X15675420Y-12933222D01*
X15675420Y-12933222D02*
X15684944Y-12952269D01*
X15684944Y-12952269D02*
X15684944Y-12999888D01*
X15684944Y-12999888D02*
X15675420Y-13018936D01*
X15675420Y-13018936D02*
X15665896Y-13028460D01*
X15665896Y-13028460D02*
X15646848Y-13037984D01*
X15646848Y-13037984D02*
X15599229Y-13037984D01*
X15599229Y-13037984D02*
X15580182Y-13028460D01*
X15580182Y-13028460D02*
X15570658Y-13018936D01*
X15761134Y-12837984D02*
X15761134Y-12876079D01*
X15837325Y-12837984D02*
X15837325Y-12876079D01*
X16132563Y-13114174D02*
X16123039Y-13104650D01*
X16123039Y-13104650D02*
X16103991Y-13076079D01*
X16103991Y-13076079D02*
X16094468Y-13057031D01*
X16094468Y-13057031D02*
X16084944Y-13028460D01*
X16084944Y-13028460D02*
X16075420Y-12980841D01*
X16075420Y-12980841D02*
X16075420Y-12942746D01*
X16075420Y-12942746D02*
X16084944Y-12895127D01*
X16084944Y-12895127D02*
X16094468Y-12866555D01*
X16094468Y-12866555D02*
X16103991Y-12847508D01*
X16103991Y-12847508D02*
X16123039Y-12818936D01*
X16123039Y-12818936D02*
X16132563Y-12809412D01*
X16189706Y-12837984D02*
X16313515Y-12837984D01*
X16313515Y-12837984D02*
X16246848Y-12914174D01*
X16246848Y-12914174D02*
X16275420Y-12914174D01*
X16275420Y-12914174D02*
X16294468Y-12923698D01*
X16294468Y-12923698D02*
X16303991Y-12933222D01*
X16303991Y-12933222D02*
X16313515Y-12952269D01*
X16313515Y-12952269D02*
X16313515Y-12999888D01*
X16313515Y-12999888D02*
X16303991Y-13018936D01*
X16303991Y-13018936D02*
X16294468Y-13028460D01*
X16294468Y-13028460D02*
X16275420Y-13037984D01*
X16275420Y-13037984D02*
X16218277Y-13037984D01*
X16218277Y-13037984D02*
X16199229Y-13028460D01*
X16199229Y-13028460D02*
X16189706Y-13018936D01*
X16551610Y-13037984D02*
X16551610Y-12837984D01*
X16637325Y-13037984D02*
X16637325Y-12933222D01*
X16637325Y-12933222D02*
X16627801Y-12914174D01*
X16627801Y-12914174D02*
X16608753Y-12904650D01*
X16608753Y-12904650D02*
X16580182Y-12904650D01*
X16580182Y-12904650D02*
X16561134Y-12914174D01*
X16561134Y-12914174D02*
X16551610Y-12923698D01*
X16761134Y-13037984D02*
X16742087Y-13028460D01*
X16742087Y-13028460D02*
X16732563Y-13018936D01*
X16732563Y-13018936D02*
X16723039Y-12999888D01*
X16723039Y-12999888D02*
X16723039Y-12942746D01*
X16723039Y-12942746D02*
X16732563Y-12923698D01*
X16732563Y-12923698D02*
X16742087Y-12914174D01*
X16742087Y-12914174D02*
X16761134Y-12904650D01*
X16761134Y-12904650D02*
X16789706Y-12904650D01*
X16789706Y-12904650D02*
X16808753Y-12914174D01*
X16808753Y-12914174D02*
X16818277Y-12923698D01*
X16818277Y-12923698D02*
X16827801Y-12942746D01*
X16827801Y-12942746D02*
X16827801Y-12999888D01*
X16827801Y-12999888D02*
X16818277Y-13018936D01*
X16818277Y-13018936D02*
X16808753Y-13028460D01*
X16808753Y-13028460D02*
X16789706Y-13037984D01*
X16789706Y-13037984D02*
X16761134Y-13037984D01*
X16942087Y-13037984D02*
X16923039Y-13028460D01*
X16923039Y-13028460D02*
X16913515Y-13009412D01*
X16913515Y-13009412D02*
X16913515Y-12837984D01*
X17094468Y-13028460D02*
X17075420Y-13037984D01*
X17075420Y-13037984D02*
X17037325Y-13037984D01*
X17037325Y-13037984D02*
X17018277Y-13028460D01*
X17018277Y-13028460D02*
X17008753Y-13009412D01*
X17008753Y-13009412D02*
X17008753Y-12933222D01*
X17008753Y-12933222D02*
X17018277Y-12914174D01*
X17018277Y-12914174D02*
X17037325Y-12904650D01*
X17037325Y-12904650D02*
X17075420Y-12904650D01*
X17075420Y-12904650D02*
X17094468Y-12914174D01*
X17094468Y-12914174D02*
X17103992Y-12933222D01*
X17103992Y-12933222D02*
X17103992Y-12952269D01*
X17103992Y-12952269D02*
X17008753Y-12971317D01*
X17180182Y-13028460D02*
X17199230Y-13037984D01*
X17199230Y-13037984D02*
X17237325Y-13037984D01*
X17237325Y-13037984D02*
X17256373Y-13028460D01*
X17256373Y-13028460D02*
X17265896Y-13009412D01*
X17265896Y-13009412D02*
X17265896Y-12999888D01*
X17265896Y-12999888D02*
X17256373Y-12980841D01*
X17256373Y-12980841D02*
X17237325Y-12971317D01*
X17237325Y-12971317D02*
X17208753Y-12971317D01*
X17208753Y-12971317D02*
X17189706Y-12961793D01*
X17189706Y-12961793D02*
X17180182Y-12942746D01*
X17180182Y-12942746D02*
X17180182Y-12933222D01*
X17180182Y-12933222D02*
X17189706Y-12914174D01*
X17189706Y-12914174D02*
X17208753Y-12904650D01*
X17208753Y-12904650D02*
X17237325Y-12904650D01*
X17237325Y-12904650D02*
X17256373Y-12914174D01*
X17332563Y-13114174D02*
X17342087Y-13104650D01*
X17342087Y-13104650D02*
X17361134Y-13076079D01*
X17361134Y-13076079D02*
X17370658Y-13057031D01*
X17370658Y-13057031D02*
X17380182Y-13028460D01*
X17380182Y-13028460D02*
X17389706Y-12980841D01*
X17389706Y-12980841D02*
X17389706Y-12942746D01*
X17389706Y-12942746D02*
X17380182Y-12895127D01*
X17380182Y-12895127D02*
X17370658Y-12866555D01*
X17370658Y-12866555D02*
X17361134Y-12847508D01*
X17361134Y-12847508D02*
X17342087Y-12818936D01*
X17342087Y-12818936D02*
X17332563Y-12809412D01*
D12*
X12517500Y-13170500D02*
X12517500Y-13250500D01*
X12477500Y-13210500D02*
X12557500Y-13210500D01*
D11*
X12856372Y-13101984D02*
X12875420Y-13101984D01*
X12875420Y-13101984D02*
X12894467Y-13111508D01*
X12894467Y-13111508D02*
X12903991Y-13121031D01*
X12903991Y-13121031D02*
X12913515Y-13140079D01*
X12913515Y-13140079D02*
X12923039Y-13178174D01*
X12923039Y-13178174D02*
X12923039Y-13225793D01*
X12923039Y-13225793D02*
X12913515Y-13263888D01*
X12913515Y-13263888D02*
X12903991Y-13282936D01*
X12903991Y-13282936D02*
X12894467Y-13292460D01*
X12894467Y-13292460D02*
X12875420Y-13301984D01*
X12875420Y-13301984D02*
X12856372Y-13301984D01*
X12856372Y-13301984D02*
X12837324Y-13292460D01*
X12837324Y-13292460D02*
X12827801Y-13282936D01*
X12827801Y-13282936D02*
X12818277Y-13263888D01*
X12818277Y-13263888D02*
X12808753Y-13225793D01*
X12808753Y-13225793D02*
X12808753Y-13178174D01*
X12808753Y-13178174D02*
X12818277Y-13140079D01*
X12818277Y-13140079D02*
X12827801Y-13121031D01*
X12827801Y-13121031D02*
X12837324Y-13111508D01*
X12837324Y-13111508D02*
X12856372Y-13101984D01*
X13008753Y-13282936D02*
X13018277Y-13292460D01*
X13018277Y-13292460D02*
X13008753Y-13301984D01*
X13008753Y-13301984D02*
X12999229Y-13292460D01*
X12999229Y-13292460D02*
X13008753Y-13282936D01*
X13008753Y-13282936D02*
X13008753Y-13301984D01*
X13132562Y-13187698D02*
X13113515Y-13178174D01*
X13113515Y-13178174D02*
X13103991Y-13168650D01*
X13103991Y-13168650D02*
X13094467Y-13149603D01*
X13094467Y-13149603D02*
X13094467Y-13140079D01*
X13094467Y-13140079D02*
X13103991Y-13121031D01*
X13103991Y-13121031D02*
X13113515Y-13111508D01*
X13113515Y-13111508D02*
X13132562Y-13101984D01*
X13132562Y-13101984D02*
X13170658Y-13101984D01*
X13170658Y-13101984D02*
X13189705Y-13111508D01*
X13189705Y-13111508D02*
X13199229Y-13121031D01*
X13199229Y-13121031D02*
X13208753Y-13140079D01*
X13208753Y-13140079D02*
X13208753Y-13149603D01*
X13208753Y-13149603D02*
X13199229Y-13168650D01*
X13199229Y-13168650D02*
X13189705Y-13178174D01*
X13189705Y-13178174D02*
X13170658Y-13187698D01*
X13170658Y-13187698D02*
X13132562Y-13187698D01*
X13132562Y-13187698D02*
X13113515Y-13197222D01*
X13113515Y-13197222D02*
X13103991Y-13206746D01*
X13103991Y-13206746D02*
X13094467Y-13225793D01*
X13094467Y-13225793D02*
X13094467Y-13263888D01*
X13094467Y-13263888D02*
X13103991Y-13282936D01*
X13103991Y-13282936D02*
X13113515Y-13292460D01*
X13113515Y-13292460D02*
X13132562Y-13301984D01*
X13132562Y-13301984D02*
X13170658Y-13301984D01*
X13170658Y-13301984D02*
X13189705Y-13292460D01*
X13189705Y-13292460D02*
X13199229Y-13282936D01*
X13199229Y-13282936D02*
X13208753Y-13263888D01*
X13208753Y-13263888D02*
X13208753Y-13225793D01*
X13208753Y-13225793D02*
X13199229Y-13206746D01*
X13199229Y-13206746D02*
X13189705Y-13197222D01*
X13189705Y-13197222D02*
X13170658Y-13187698D01*
X13332562Y-13101984D02*
X13351610Y-13101984D01*
X13351610Y-13101984D02*
X13370658Y-13111508D01*
X13370658Y-13111508D02*
X13380182Y-13121031D01*
X13380182Y-13121031D02*
X13389705Y-13140079D01*
X13389705Y-13140079D02*
X13399229Y-13178174D01*
X13399229Y-13178174D02*
X13399229Y-13225793D01*
X13399229Y-13225793D02*
X13389705Y-13263888D01*
X13389705Y-13263888D02*
X13380182Y-13282936D01*
X13380182Y-13282936D02*
X13370658Y-13292460D01*
X13370658Y-13292460D02*
X13351610Y-13301984D01*
X13351610Y-13301984D02*
X13332562Y-13301984D01*
X13332562Y-13301984D02*
X13313515Y-13292460D01*
X13313515Y-13292460D02*
X13303991Y-13282936D01*
X13303991Y-13282936D02*
X13294467Y-13263888D01*
X13294467Y-13263888D02*
X13284943Y-13225793D01*
X13284943Y-13225793D02*
X13284943Y-13178174D01*
X13284943Y-13178174D02*
X13294467Y-13140079D01*
X13294467Y-13140079D02*
X13303991Y-13121031D01*
X13303991Y-13121031D02*
X13313515Y-13111508D01*
X13313515Y-13111508D02*
X13332562Y-13101984D01*
X13523039Y-13101984D02*
X13542086Y-13101984D01*
X13542086Y-13101984D02*
X13561134Y-13111508D01*
X13561134Y-13111508D02*
X13570658Y-13121031D01*
X13570658Y-13121031D02*
X13580182Y-13140079D01*
X13580182Y-13140079D02*
X13589705Y-13178174D01*
X13589705Y-13178174D02*
X13589705Y-13225793D01*
X13589705Y-13225793D02*
X13580182Y-13263888D01*
X13580182Y-13263888D02*
X13570658Y-13282936D01*
X13570658Y-13282936D02*
X13561134Y-13292460D01*
X13561134Y-13292460D02*
X13542086Y-13301984D01*
X13542086Y-13301984D02*
X13523039Y-13301984D01*
X13523039Y-13301984D02*
X13503991Y-13292460D01*
X13503991Y-13292460D02*
X13494467Y-13282936D01*
X13494467Y-13282936D02*
X13484943Y-13263888D01*
X13484943Y-13263888D02*
X13475420Y-13225793D01*
X13475420Y-13225793D02*
X13475420Y-13178174D01*
X13475420Y-13178174D02*
X13484943Y-13140079D01*
X13484943Y-13140079D02*
X13494467Y-13121031D01*
X13494467Y-13121031D02*
X13503991Y-13111508D01*
X13503991Y-13111508D02*
X13523039Y-13101984D01*
X13675420Y-13301984D02*
X13675420Y-13168650D01*
X13675420Y-13187698D02*
X13684943Y-13178174D01*
X13684943Y-13178174D02*
X13703991Y-13168650D01*
X13703991Y-13168650D02*
X13732563Y-13168650D01*
X13732563Y-13168650D02*
X13751610Y-13178174D01*
X13751610Y-13178174D02*
X13761134Y-13197222D01*
X13761134Y-13197222D02*
X13761134Y-13301984D01*
X13761134Y-13197222D02*
X13770658Y-13178174D01*
X13770658Y-13178174D02*
X13789705Y-13168650D01*
X13789705Y-13168650D02*
X13818277Y-13168650D01*
X13818277Y-13168650D02*
X13837324Y-13178174D01*
X13837324Y-13178174D02*
X13846848Y-13197222D01*
X13846848Y-13197222D02*
X13846848Y-13301984D01*
X13942086Y-13301984D02*
X13942086Y-13168650D01*
X13942086Y-13187698D02*
X13951610Y-13178174D01*
X13951610Y-13178174D02*
X13970658Y-13168650D01*
X13970658Y-13168650D02*
X13999229Y-13168650D01*
X13999229Y-13168650D02*
X14018277Y-13178174D01*
X14018277Y-13178174D02*
X14027801Y-13197222D01*
X14027801Y-13197222D02*
X14027801Y-13301984D01*
X14027801Y-13197222D02*
X14037324Y-13178174D01*
X14037324Y-13178174D02*
X14056372Y-13168650D01*
X14056372Y-13168650D02*
X14084943Y-13168650D01*
X14084943Y-13168650D02*
X14103991Y-13178174D01*
X14103991Y-13178174D02*
X14113515Y-13197222D01*
X14113515Y-13197222D02*
X14113515Y-13301984D01*
X14503991Y-13092460D02*
X14332563Y-13349603D01*
X14761134Y-13101984D02*
X14780182Y-13101984D01*
X14780182Y-13101984D02*
X14799229Y-13111508D01*
X14799229Y-13111508D02*
X14808753Y-13121031D01*
X14808753Y-13121031D02*
X14818277Y-13140079D01*
X14818277Y-13140079D02*
X14827801Y-13178174D01*
X14827801Y-13178174D02*
X14827801Y-13225793D01*
X14827801Y-13225793D02*
X14818277Y-13263888D01*
X14818277Y-13263888D02*
X14808753Y-13282936D01*
X14808753Y-13282936D02*
X14799229Y-13292460D01*
X14799229Y-13292460D02*
X14780182Y-13301984D01*
X14780182Y-13301984D02*
X14761134Y-13301984D01*
X14761134Y-13301984D02*
X14742086Y-13292460D01*
X14742086Y-13292460D02*
X14732563Y-13282936D01*
X14732563Y-13282936D02*
X14723039Y-13263888D01*
X14723039Y-13263888D02*
X14713515Y-13225793D01*
X14713515Y-13225793D02*
X14713515Y-13178174D01*
X14713515Y-13178174D02*
X14723039Y-13140079D01*
X14723039Y-13140079D02*
X14732563Y-13121031D01*
X14732563Y-13121031D02*
X14742086Y-13111508D01*
X14742086Y-13111508D02*
X14761134Y-13101984D01*
X14913515Y-13282936D02*
X14923039Y-13292460D01*
X14923039Y-13292460D02*
X14913515Y-13301984D01*
X14913515Y-13301984D02*
X14903991Y-13292460D01*
X14903991Y-13292460D02*
X14913515Y-13282936D01*
X14913515Y-13282936D02*
X14913515Y-13301984D01*
X15046848Y-13101984D02*
X15065896Y-13101984D01*
X15065896Y-13101984D02*
X15084944Y-13111508D01*
X15084944Y-13111508D02*
X15094467Y-13121031D01*
X15094467Y-13121031D02*
X15103991Y-13140079D01*
X15103991Y-13140079D02*
X15113515Y-13178174D01*
X15113515Y-13178174D02*
X15113515Y-13225793D01*
X15113515Y-13225793D02*
X15103991Y-13263888D01*
X15103991Y-13263888D02*
X15094467Y-13282936D01*
X15094467Y-13282936D02*
X15084944Y-13292460D01*
X15084944Y-13292460D02*
X15065896Y-13301984D01*
X15065896Y-13301984D02*
X15046848Y-13301984D01*
X15046848Y-13301984D02*
X15027801Y-13292460D01*
X15027801Y-13292460D02*
X15018277Y-13282936D01*
X15018277Y-13282936D02*
X15008753Y-13263888D01*
X15008753Y-13263888D02*
X14999229Y-13225793D01*
X14999229Y-13225793D02*
X14999229Y-13178174D01*
X14999229Y-13178174D02*
X15008753Y-13140079D01*
X15008753Y-13140079D02*
X15018277Y-13121031D01*
X15018277Y-13121031D02*
X15027801Y-13111508D01*
X15027801Y-13111508D02*
X15046848Y-13101984D01*
X15180182Y-13101984D02*
X15303991Y-13101984D01*
X15303991Y-13101984D02*
X15237325Y-13178174D01*
X15237325Y-13178174D02*
X15265896Y-13178174D01*
X15265896Y-13178174D02*
X15284944Y-13187698D01*
X15284944Y-13187698D02*
X15294467Y-13197222D01*
X15294467Y-13197222D02*
X15303991Y-13216269D01*
X15303991Y-13216269D02*
X15303991Y-13263888D01*
X15303991Y-13263888D02*
X15294467Y-13282936D01*
X15294467Y-13282936D02*
X15284944Y-13292460D01*
X15284944Y-13292460D02*
X15265896Y-13301984D01*
X15265896Y-13301984D02*
X15208753Y-13301984D01*
X15208753Y-13301984D02*
X15189706Y-13292460D01*
X15189706Y-13292460D02*
X15180182Y-13282936D01*
X15494467Y-13301984D02*
X15380182Y-13301984D01*
X15437325Y-13301984D02*
X15437325Y-13101984D01*
X15437325Y-13101984D02*
X15418277Y-13130555D01*
X15418277Y-13130555D02*
X15399229Y-13149603D01*
X15399229Y-13149603D02*
X15380182Y-13159127D01*
X15675420Y-13101984D02*
X15580182Y-13101984D01*
X15580182Y-13101984D02*
X15570658Y-13197222D01*
X15570658Y-13197222D02*
X15580182Y-13187698D01*
X15580182Y-13187698D02*
X15599229Y-13178174D01*
X15599229Y-13178174D02*
X15646848Y-13178174D01*
X15646848Y-13178174D02*
X15665896Y-13187698D01*
X15665896Y-13187698D02*
X15675420Y-13197222D01*
X15675420Y-13197222D02*
X15684944Y-13216269D01*
X15684944Y-13216269D02*
X15684944Y-13263888D01*
X15684944Y-13263888D02*
X15675420Y-13282936D01*
X15675420Y-13282936D02*
X15665896Y-13292460D01*
X15665896Y-13292460D02*
X15646848Y-13301984D01*
X15646848Y-13301984D02*
X15599229Y-13301984D01*
X15599229Y-13301984D02*
X15580182Y-13292460D01*
X15580182Y-13292460D02*
X15570658Y-13282936D01*
X15761134Y-13101984D02*
X15761134Y-13140079D01*
X15837325Y-13101984D02*
X15837325Y-13140079D01*
X16132563Y-13378174D02*
X16123039Y-13368650D01*
X16123039Y-13368650D02*
X16103991Y-13340079D01*
X16103991Y-13340079D02*
X16094468Y-13321031D01*
X16094468Y-13321031D02*
X16084944Y-13292460D01*
X16084944Y-13292460D02*
X16075420Y-13244841D01*
X16075420Y-13244841D02*
X16075420Y-13206746D01*
X16075420Y-13206746D02*
X16084944Y-13159127D01*
X16084944Y-13159127D02*
X16094468Y-13130555D01*
X16094468Y-13130555D02*
X16103991Y-13111508D01*
X16103991Y-13111508D02*
X16123039Y-13082936D01*
X16123039Y-13082936D02*
X16132563Y-13073412D01*
X16294468Y-13168650D02*
X16294468Y-13301984D01*
X16246848Y-13092460D02*
X16199229Y-13235317D01*
X16199229Y-13235317D02*
X16323039Y-13235317D01*
X16551610Y-13301984D02*
X16551610Y-13101984D01*
X16637325Y-13301984D02*
X16637325Y-13197222D01*
X16637325Y-13197222D02*
X16627801Y-13178174D01*
X16627801Y-13178174D02*
X16608753Y-13168650D01*
X16608753Y-13168650D02*
X16580182Y-13168650D01*
X16580182Y-13168650D02*
X16561134Y-13178174D01*
X16561134Y-13178174D02*
X16551610Y-13187698D01*
X16761134Y-13301984D02*
X16742087Y-13292460D01*
X16742087Y-13292460D02*
X16732563Y-13282936D01*
X16732563Y-13282936D02*
X16723039Y-13263888D01*
X16723039Y-13263888D02*
X16723039Y-13206746D01*
X16723039Y-13206746D02*
X16732563Y-13187698D01*
X16732563Y-13187698D02*
X16742087Y-13178174D01*
X16742087Y-13178174D02*
X16761134Y-13168650D01*
X16761134Y-13168650D02*
X16789706Y-13168650D01*
X16789706Y-13168650D02*
X16808753Y-13178174D01*
X16808753Y-13178174D02*
X16818277Y-13187698D01*
X16818277Y-13187698D02*
X16827801Y-13206746D01*
X16827801Y-13206746D02*
X16827801Y-13263888D01*
X16827801Y-13263888D02*
X16818277Y-13282936D01*
X16818277Y-13282936D02*
X16808753Y-13292460D01*
X16808753Y-13292460D02*
X16789706Y-13301984D01*
X16789706Y-13301984D02*
X16761134Y-13301984D01*
X16942087Y-13301984D02*
X16923039Y-13292460D01*
X16923039Y-13292460D02*
X16913515Y-13273412D01*
X16913515Y-13273412D02*
X16913515Y-13101984D01*
X17094468Y-13292460D02*
X17075420Y-13301984D01*
X17075420Y-13301984D02*
X17037325Y-13301984D01*
X17037325Y-13301984D02*
X17018277Y-13292460D01*
X17018277Y-13292460D02*
X17008753Y-13273412D01*
X17008753Y-13273412D02*
X17008753Y-13197222D01*
X17008753Y-13197222D02*
X17018277Y-13178174D01*
X17018277Y-13178174D02*
X17037325Y-13168650D01*
X17037325Y-13168650D02*
X17075420Y-13168650D01*
X17075420Y-13168650D02*
X17094468Y-13178174D01*
X17094468Y-13178174D02*
X17103992Y-13197222D01*
X17103992Y-13197222D02*
X17103992Y-13216269D01*
X17103992Y-13216269D02*
X17008753Y-13235317D01*
X17180182Y-13292460D02*
X17199230Y-13301984D01*
X17199230Y-13301984D02*
X17237325Y-13301984D01*
X17237325Y-13301984D02*
X17256373Y-13292460D01*
X17256373Y-13292460D02*
X17265896Y-13273412D01*
X17265896Y-13273412D02*
X17265896Y-13263888D01*
X17265896Y-13263888D02*
X17256373Y-13244841D01*
X17256373Y-13244841D02*
X17237325Y-13235317D01*
X17237325Y-13235317D02*
X17208753Y-13235317D01*
X17208753Y-13235317D02*
X17189706Y-13225793D01*
X17189706Y-13225793D02*
X17180182Y-13206746D01*
X17180182Y-13206746D02*
X17180182Y-13197222D01*
X17180182Y-13197222D02*
X17189706Y-13178174D01*
X17189706Y-13178174D02*
X17208753Y-13168650D01*
X17208753Y-13168650D02*
X17237325Y-13168650D01*
X17237325Y-13168650D02*
X17256373Y-13178174D01*
X17332563Y-13378174D02*
X17342087Y-13368650D01*
X17342087Y-13368650D02*
X17361134Y-13340079D01*
X17361134Y-13340079D02*
X17370658Y-13321031D01*
X17370658Y-13321031D02*
X17380182Y-13292460D01*
X17380182Y-13292460D02*
X17389706Y-13244841D01*
X17389706Y-13244841D02*
X17389706Y-13206746D01*
X17389706Y-13206746D02*
X17380182Y-13159127D01*
X17380182Y-13159127D02*
X17370658Y-13130555D01*
X17370658Y-13130555D02*
X17361134Y-13111508D01*
X17361134Y-13111508D02*
X17342087Y-13082936D01*
X17342087Y-13082936D02*
X17332563Y-13073412D01*
D12*
X12542856Y-13509856D02*
X12542856Y-13439144D01*
X12472144Y-13439144D01*
X12472144Y-13509856D01*
X12542856Y-13509856D01*
D11*
X12923039Y-13565984D02*
X12808753Y-13565984D01*
X12865896Y-13565984D02*
X12865896Y-13365984D01*
X12865896Y-13365984D02*
X12846848Y-13394555D01*
X12846848Y-13394555D02*
X12827801Y-13413603D01*
X12827801Y-13413603D02*
X12808753Y-13423127D01*
X13008753Y-13546936D02*
X13018277Y-13556460D01*
X13018277Y-13556460D02*
X13008753Y-13565984D01*
X13008753Y-13565984D02*
X12999229Y-13556460D01*
X12999229Y-13556460D02*
X13008753Y-13546936D01*
X13008753Y-13546936D02*
X13008753Y-13565984D01*
X13142086Y-13365984D02*
X13161134Y-13365984D01*
X13161134Y-13365984D02*
X13180182Y-13375508D01*
X13180182Y-13375508D02*
X13189705Y-13385031D01*
X13189705Y-13385031D02*
X13199229Y-13404079D01*
X13199229Y-13404079D02*
X13208753Y-13442174D01*
X13208753Y-13442174D02*
X13208753Y-13489793D01*
X13208753Y-13489793D02*
X13199229Y-13527888D01*
X13199229Y-13527888D02*
X13189705Y-13546936D01*
X13189705Y-13546936D02*
X13180182Y-13556460D01*
X13180182Y-13556460D02*
X13161134Y-13565984D01*
X13161134Y-13565984D02*
X13142086Y-13565984D01*
X13142086Y-13565984D02*
X13123039Y-13556460D01*
X13123039Y-13556460D02*
X13113515Y-13546936D01*
X13113515Y-13546936D02*
X13103991Y-13527888D01*
X13103991Y-13527888D02*
X13094467Y-13489793D01*
X13094467Y-13489793D02*
X13094467Y-13442174D01*
X13094467Y-13442174D02*
X13103991Y-13404079D01*
X13103991Y-13404079D02*
X13113515Y-13385031D01*
X13113515Y-13385031D02*
X13123039Y-13375508D01*
X13123039Y-13375508D02*
X13142086Y-13365984D01*
X13332562Y-13365984D02*
X13351610Y-13365984D01*
X13351610Y-13365984D02*
X13370658Y-13375508D01*
X13370658Y-13375508D02*
X13380182Y-13385031D01*
X13380182Y-13385031D02*
X13389705Y-13404079D01*
X13389705Y-13404079D02*
X13399229Y-13442174D01*
X13399229Y-13442174D02*
X13399229Y-13489793D01*
X13399229Y-13489793D02*
X13389705Y-13527888D01*
X13389705Y-13527888D02*
X13380182Y-13546936D01*
X13380182Y-13546936D02*
X13370658Y-13556460D01*
X13370658Y-13556460D02*
X13351610Y-13565984D01*
X13351610Y-13565984D02*
X13332562Y-13565984D01*
X13332562Y-13565984D02*
X13313515Y-13556460D01*
X13313515Y-13556460D02*
X13303991Y-13546936D01*
X13303991Y-13546936D02*
X13294467Y-13527888D01*
X13294467Y-13527888D02*
X13284943Y-13489793D01*
X13284943Y-13489793D02*
X13284943Y-13442174D01*
X13284943Y-13442174D02*
X13294467Y-13404079D01*
X13294467Y-13404079D02*
X13303991Y-13385031D01*
X13303991Y-13385031D02*
X13313515Y-13375508D01*
X13313515Y-13375508D02*
X13332562Y-13365984D01*
X13523039Y-13365984D02*
X13542086Y-13365984D01*
X13542086Y-13365984D02*
X13561134Y-13375508D01*
X13561134Y-13375508D02*
X13570658Y-13385031D01*
X13570658Y-13385031D02*
X13580182Y-13404079D01*
X13580182Y-13404079D02*
X13589705Y-13442174D01*
X13589705Y-13442174D02*
X13589705Y-13489793D01*
X13589705Y-13489793D02*
X13580182Y-13527888D01*
X13580182Y-13527888D02*
X13570658Y-13546936D01*
X13570658Y-13546936D02*
X13561134Y-13556460D01*
X13561134Y-13556460D02*
X13542086Y-13565984D01*
X13542086Y-13565984D02*
X13523039Y-13565984D01*
X13523039Y-13565984D02*
X13503991Y-13556460D01*
X13503991Y-13556460D02*
X13494467Y-13546936D01*
X13494467Y-13546936D02*
X13484943Y-13527888D01*
X13484943Y-13527888D02*
X13475420Y-13489793D01*
X13475420Y-13489793D02*
X13475420Y-13442174D01*
X13475420Y-13442174D02*
X13484943Y-13404079D01*
X13484943Y-13404079D02*
X13494467Y-13385031D01*
X13494467Y-13385031D02*
X13503991Y-13375508D01*
X13503991Y-13375508D02*
X13523039Y-13365984D01*
X13675420Y-13565984D02*
X13675420Y-13432650D01*
X13675420Y-13451698D02*
X13684943Y-13442174D01*
X13684943Y-13442174D02*
X13703991Y-13432650D01*
X13703991Y-13432650D02*
X13732563Y-13432650D01*
X13732563Y-13432650D02*
X13751610Y-13442174D01*
X13751610Y-13442174D02*
X13761134Y-13461222D01*
X13761134Y-13461222D02*
X13761134Y-13565984D01*
X13761134Y-13461222D02*
X13770658Y-13442174D01*
X13770658Y-13442174D02*
X13789705Y-13432650D01*
X13789705Y-13432650D02*
X13818277Y-13432650D01*
X13818277Y-13432650D02*
X13837324Y-13442174D01*
X13837324Y-13442174D02*
X13846848Y-13461222D01*
X13846848Y-13461222D02*
X13846848Y-13565984D01*
X13942086Y-13565984D02*
X13942086Y-13432650D01*
X13942086Y-13451698D02*
X13951610Y-13442174D01*
X13951610Y-13442174D02*
X13970658Y-13432650D01*
X13970658Y-13432650D02*
X13999229Y-13432650D01*
X13999229Y-13432650D02*
X14018277Y-13442174D01*
X14018277Y-13442174D02*
X14027801Y-13461222D01*
X14027801Y-13461222D02*
X14027801Y-13565984D01*
X14027801Y-13461222D02*
X14037324Y-13442174D01*
X14037324Y-13442174D02*
X14056372Y-13432650D01*
X14056372Y-13432650D02*
X14084943Y-13432650D01*
X14084943Y-13432650D02*
X14103991Y-13442174D01*
X14103991Y-13442174D02*
X14113515Y-13461222D01*
X14113515Y-13461222D02*
X14113515Y-13565984D01*
X14503991Y-13356460D02*
X14332563Y-13613603D01*
X14761134Y-13365984D02*
X14780182Y-13365984D01*
X14780182Y-13365984D02*
X14799229Y-13375508D01*
X14799229Y-13375508D02*
X14808753Y-13385031D01*
X14808753Y-13385031D02*
X14818277Y-13404079D01*
X14818277Y-13404079D02*
X14827801Y-13442174D01*
X14827801Y-13442174D02*
X14827801Y-13489793D01*
X14827801Y-13489793D02*
X14818277Y-13527888D01*
X14818277Y-13527888D02*
X14808753Y-13546936D01*
X14808753Y-13546936D02*
X14799229Y-13556460D01*
X14799229Y-13556460D02*
X14780182Y-13565984D01*
X14780182Y-13565984D02*
X14761134Y-13565984D01*
X14761134Y-13565984D02*
X14742086Y-13556460D01*
X14742086Y-13556460D02*
X14732563Y-13546936D01*
X14732563Y-13546936D02*
X14723039Y-13527888D01*
X14723039Y-13527888D02*
X14713515Y-13489793D01*
X14713515Y-13489793D02*
X14713515Y-13442174D01*
X14713515Y-13442174D02*
X14723039Y-13404079D01*
X14723039Y-13404079D02*
X14732563Y-13385031D01*
X14732563Y-13385031D02*
X14742086Y-13375508D01*
X14742086Y-13375508D02*
X14761134Y-13365984D01*
X14913515Y-13546936D02*
X14923039Y-13556460D01*
X14923039Y-13556460D02*
X14913515Y-13565984D01*
X14913515Y-13565984D02*
X14903991Y-13556460D01*
X14903991Y-13556460D02*
X14913515Y-13546936D01*
X14913515Y-13546936D02*
X14913515Y-13565984D01*
X15046848Y-13365984D02*
X15065896Y-13365984D01*
X15065896Y-13365984D02*
X15084944Y-13375508D01*
X15084944Y-13375508D02*
X15094467Y-13385031D01*
X15094467Y-13385031D02*
X15103991Y-13404079D01*
X15103991Y-13404079D02*
X15113515Y-13442174D01*
X15113515Y-13442174D02*
X15113515Y-13489793D01*
X15113515Y-13489793D02*
X15103991Y-13527888D01*
X15103991Y-13527888D02*
X15094467Y-13546936D01*
X15094467Y-13546936D02*
X15084944Y-13556460D01*
X15084944Y-13556460D02*
X15065896Y-13565984D01*
X15065896Y-13565984D02*
X15046848Y-13565984D01*
X15046848Y-13565984D02*
X15027801Y-13556460D01*
X15027801Y-13556460D02*
X15018277Y-13546936D01*
X15018277Y-13546936D02*
X15008753Y-13527888D01*
X15008753Y-13527888D02*
X14999229Y-13489793D01*
X14999229Y-13489793D02*
X14999229Y-13442174D01*
X14999229Y-13442174D02*
X15008753Y-13404079D01*
X15008753Y-13404079D02*
X15018277Y-13385031D01*
X15018277Y-13385031D02*
X15027801Y-13375508D01*
X15027801Y-13375508D02*
X15046848Y-13365984D01*
X15180182Y-13365984D02*
X15303991Y-13365984D01*
X15303991Y-13365984D02*
X15237325Y-13442174D01*
X15237325Y-13442174D02*
X15265896Y-13442174D01*
X15265896Y-13442174D02*
X15284944Y-13451698D01*
X15284944Y-13451698D02*
X15294467Y-13461222D01*
X15294467Y-13461222D02*
X15303991Y-13480269D01*
X15303991Y-13480269D02*
X15303991Y-13527888D01*
X15303991Y-13527888D02*
X15294467Y-13546936D01*
X15294467Y-13546936D02*
X15284944Y-13556460D01*
X15284944Y-13556460D02*
X15265896Y-13565984D01*
X15265896Y-13565984D02*
X15208753Y-13565984D01*
X15208753Y-13565984D02*
X15189706Y-13556460D01*
X15189706Y-13556460D02*
X15180182Y-13546936D01*
X15399229Y-13565984D02*
X15437325Y-13565984D01*
X15437325Y-13565984D02*
X15456372Y-13556460D01*
X15456372Y-13556460D02*
X15465896Y-13546936D01*
X15465896Y-13546936D02*
X15484944Y-13518365D01*
X15484944Y-13518365D02*
X15494467Y-13480269D01*
X15494467Y-13480269D02*
X15494467Y-13404079D01*
X15494467Y-13404079D02*
X15484944Y-13385031D01*
X15484944Y-13385031D02*
X15475420Y-13375508D01*
X15475420Y-13375508D02*
X15456372Y-13365984D01*
X15456372Y-13365984D02*
X15418277Y-13365984D01*
X15418277Y-13365984D02*
X15399229Y-13375508D01*
X15399229Y-13375508D02*
X15389706Y-13385031D01*
X15389706Y-13385031D02*
X15380182Y-13404079D01*
X15380182Y-13404079D02*
X15380182Y-13451698D01*
X15380182Y-13451698D02*
X15389706Y-13470746D01*
X15389706Y-13470746D02*
X15399229Y-13480269D01*
X15399229Y-13480269D02*
X15418277Y-13489793D01*
X15418277Y-13489793D02*
X15456372Y-13489793D01*
X15456372Y-13489793D02*
X15475420Y-13480269D01*
X15475420Y-13480269D02*
X15484944Y-13470746D01*
X15484944Y-13470746D02*
X15494467Y-13451698D01*
X15665896Y-13432650D02*
X15665896Y-13565984D01*
X15618277Y-13356460D02*
X15570658Y-13499317D01*
X15570658Y-13499317D02*
X15694467Y-13499317D01*
X15761134Y-13365984D02*
X15761134Y-13404079D01*
X15837325Y-13365984D02*
X15837325Y-13404079D01*
X16132563Y-13642174D02*
X16123039Y-13632650D01*
X16123039Y-13632650D02*
X16103991Y-13604079D01*
X16103991Y-13604079D02*
X16094468Y-13585031D01*
X16094468Y-13585031D02*
X16084944Y-13556460D01*
X16084944Y-13556460D02*
X16075420Y-13508841D01*
X16075420Y-13508841D02*
X16075420Y-13470746D01*
X16075420Y-13470746D02*
X16084944Y-13423127D01*
X16084944Y-13423127D02*
X16094468Y-13394555D01*
X16094468Y-13394555D02*
X16103991Y-13375508D01*
X16103991Y-13375508D02*
X16123039Y-13346936D01*
X16123039Y-13346936D02*
X16132563Y-13337412D01*
X16199229Y-13385031D02*
X16208753Y-13375508D01*
X16208753Y-13375508D02*
X16227801Y-13365984D01*
X16227801Y-13365984D02*
X16275420Y-13365984D01*
X16275420Y-13365984D02*
X16294468Y-13375508D01*
X16294468Y-13375508D02*
X16303991Y-13385031D01*
X16303991Y-13385031D02*
X16313515Y-13404079D01*
X16313515Y-13404079D02*
X16313515Y-13423127D01*
X16313515Y-13423127D02*
X16303991Y-13451698D01*
X16303991Y-13451698D02*
X16189706Y-13565984D01*
X16189706Y-13565984D02*
X16313515Y-13565984D01*
X16380182Y-13365984D02*
X16503991Y-13365984D01*
X16503991Y-13365984D02*
X16437325Y-13442174D01*
X16437325Y-13442174D02*
X16465896Y-13442174D01*
X16465896Y-13442174D02*
X16484944Y-13451698D01*
X16484944Y-13451698D02*
X16494468Y-13461222D01*
X16494468Y-13461222D02*
X16503991Y-13480269D01*
X16503991Y-13480269D02*
X16503991Y-13527888D01*
X16503991Y-13527888D02*
X16494468Y-13546936D01*
X16494468Y-13546936D02*
X16484944Y-13556460D01*
X16484944Y-13556460D02*
X16465896Y-13565984D01*
X16465896Y-13565984D02*
X16408753Y-13565984D01*
X16408753Y-13565984D02*
X16389706Y-13556460D01*
X16389706Y-13556460D02*
X16380182Y-13546936D01*
X16742087Y-13565984D02*
X16742087Y-13365984D01*
X16827801Y-13565984D02*
X16827801Y-13461222D01*
X16827801Y-13461222D02*
X16818277Y-13442174D01*
X16818277Y-13442174D02*
X16799230Y-13432650D01*
X16799230Y-13432650D02*
X16770658Y-13432650D01*
X16770658Y-13432650D02*
X16751610Y-13442174D01*
X16751610Y-13442174D02*
X16742087Y-13451698D01*
X16951611Y-13565984D02*
X16932563Y-13556460D01*
X16932563Y-13556460D02*
X16923039Y-13546936D01*
X16923039Y-13546936D02*
X16913515Y-13527888D01*
X16913515Y-13527888D02*
X16913515Y-13470746D01*
X16913515Y-13470746D02*
X16923039Y-13451698D01*
X16923039Y-13451698D02*
X16932563Y-13442174D01*
X16932563Y-13442174D02*
X16951611Y-13432650D01*
X16951611Y-13432650D02*
X16980182Y-13432650D01*
X16980182Y-13432650D02*
X16999230Y-13442174D01*
X16999230Y-13442174D02*
X17008753Y-13451698D01*
X17008753Y-13451698D02*
X17018277Y-13470746D01*
X17018277Y-13470746D02*
X17018277Y-13527888D01*
X17018277Y-13527888D02*
X17008753Y-13546936D01*
X17008753Y-13546936D02*
X16999230Y-13556460D01*
X16999230Y-13556460D02*
X16980182Y-13565984D01*
X16980182Y-13565984D02*
X16951611Y-13565984D01*
X17132563Y-13565984D02*
X17113515Y-13556460D01*
X17113515Y-13556460D02*
X17103992Y-13537412D01*
X17103992Y-13537412D02*
X17103992Y-13365984D01*
X17284944Y-13556460D02*
X17265896Y-13565984D01*
X17265896Y-13565984D02*
X17227801Y-13565984D01*
X17227801Y-13565984D02*
X17208753Y-13556460D01*
X17208753Y-13556460D02*
X17199230Y-13537412D01*
X17199230Y-13537412D02*
X17199230Y-13461222D01*
X17199230Y-13461222D02*
X17208753Y-13442174D01*
X17208753Y-13442174D02*
X17227801Y-13432650D01*
X17227801Y-13432650D02*
X17265896Y-13432650D01*
X17265896Y-13432650D02*
X17284944Y-13442174D01*
X17284944Y-13442174D02*
X17294468Y-13461222D01*
X17294468Y-13461222D02*
X17294468Y-13480269D01*
X17294468Y-13480269D02*
X17199230Y-13499317D01*
X17370658Y-13556460D02*
X17389706Y-13565984D01*
X17389706Y-13565984D02*
X17427801Y-13565984D01*
X17427801Y-13565984D02*
X17446849Y-13556460D01*
X17446849Y-13556460D02*
X17456373Y-13537412D01*
X17456373Y-13537412D02*
X17456373Y-13527888D01*
X17456373Y-13527888D02*
X17446849Y-13508841D01*
X17446849Y-13508841D02*
X17427801Y-13499317D01*
X17427801Y-13499317D02*
X17399230Y-13499317D01*
X17399230Y-13499317D02*
X17380182Y-13489793D01*
X17380182Y-13489793D02*
X17370658Y-13470746D01*
X17370658Y-13470746D02*
X17370658Y-13461222D01*
X17370658Y-13461222D02*
X17380182Y-13442174D01*
X17380182Y-13442174D02*
X17399230Y-13432650D01*
X17399230Y-13432650D02*
X17427801Y-13432650D01*
X17427801Y-13432650D02*
X17446849Y-13442174D01*
X17523039Y-13642174D02*
X17532563Y-13632650D01*
X17532563Y-13632650D02*
X17551611Y-13604079D01*
X17551611Y-13604079D02*
X17561134Y-13585031D01*
X17561134Y-13585031D02*
X17570658Y-13556460D01*
X17570658Y-13556460D02*
X17580182Y-13508841D01*
X17580182Y-13508841D02*
X17580182Y-13470746D01*
X17580182Y-13470746D02*
X17570658Y-13423127D01*
X17570658Y-13423127D02*
X17561134Y-13394555D01*
X17561134Y-13394555D02*
X17551611Y-13375508D01*
X17551611Y-13375508D02*
X17532563Y-13346936D01*
X17532563Y-13346936D02*
X17523039Y-13337412D01*
X12457500Y-13838500D02*
X12557500Y-13738500D01*
X12457500Y-13638500D01*
X12357500Y-13738500D01*
X12457500Y-13838500D01*
X12799229Y-13629984D02*
X12923039Y-13629984D01*
X12923039Y-13629984D02*
X12856372Y-13706174D01*
X12856372Y-13706174D02*
X12884943Y-13706174D01*
X12884943Y-13706174D02*
X12903991Y-13715698D01*
X12903991Y-13715698D02*
X12913515Y-13725222D01*
X12913515Y-13725222D02*
X12923039Y-13744269D01*
X12923039Y-13744269D02*
X12923039Y-13791888D01*
X12923039Y-13791888D02*
X12913515Y-13810936D01*
X12913515Y-13810936D02*
X12903991Y-13820460D01*
X12903991Y-13820460D02*
X12884943Y-13829984D01*
X12884943Y-13829984D02*
X12827801Y-13829984D01*
X12827801Y-13829984D02*
X12808753Y-13820460D01*
X12808753Y-13820460D02*
X12799229Y-13810936D01*
X13008753Y-13810936D02*
X13018277Y-13820460D01*
X13018277Y-13820460D02*
X13008753Y-13829984D01*
X13008753Y-13829984D02*
X12999229Y-13820460D01*
X12999229Y-13820460D02*
X13008753Y-13810936D01*
X13008753Y-13810936D02*
X13008753Y-13829984D01*
X13142086Y-13629984D02*
X13161134Y-13629984D01*
X13161134Y-13629984D02*
X13180182Y-13639508D01*
X13180182Y-13639508D02*
X13189705Y-13649031D01*
X13189705Y-13649031D02*
X13199229Y-13668079D01*
X13199229Y-13668079D02*
X13208753Y-13706174D01*
X13208753Y-13706174D02*
X13208753Y-13753793D01*
X13208753Y-13753793D02*
X13199229Y-13791888D01*
X13199229Y-13791888D02*
X13189705Y-13810936D01*
X13189705Y-13810936D02*
X13180182Y-13820460D01*
X13180182Y-13820460D02*
X13161134Y-13829984D01*
X13161134Y-13829984D02*
X13142086Y-13829984D01*
X13142086Y-13829984D02*
X13123039Y-13820460D01*
X13123039Y-13820460D02*
X13113515Y-13810936D01*
X13113515Y-13810936D02*
X13103991Y-13791888D01*
X13103991Y-13791888D02*
X13094467Y-13753793D01*
X13094467Y-13753793D02*
X13094467Y-13706174D01*
X13094467Y-13706174D02*
X13103991Y-13668079D01*
X13103991Y-13668079D02*
X13113515Y-13649031D01*
X13113515Y-13649031D02*
X13123039Y-13639508D01*
X13123039Y-13639508D02*
X13142086Y-13629984D01*
X13332562Y-13629984D02*
X13351610Y-13629984D01*
X13351610Y-13629984D02*
X13370658Y-13639508D01*
X13370658Y-13639508D02*
X13380182Y-13649031D01*
X13380182Y-13649031D02*
X13389705Y-13668079D01*
X13389705Y-13668079D02*
X13399229Y-13706174D01*
X13399229Y-13706174D02*
X13399229Y-13753793D01*
X13399229Y-13753793D02*
X13389705Y-13791888D01*
X13389705Y-13791888D02*
X13380182Y-13810936D01*
X13380182Y-13810936D02*
X13370658Y-13820460D01*
X13370658Y-13820460D02*
X13351610Y-13829984D01*
X13351610Y-13829984D02*
X13332562Y-13829984D01*
X13332562Y-13829984D02*
X13313515Y-13820460D01*
X13313515Y-13820460D02*
X13303991Y-13810936D01*
X13303991Y-13810936D02*
X13294467Y-13791888D01*
X13294467Y-13791888D02*
X13284943Y-13753793D01*
X13284943Y-13753793D02*
X13284943Y-13706174D01*
X13284943Y-13706174D02*
X13294467Y-13668079D01*
X13294467Y-13668079D02*
X13303991Y-13649031D01*
X13303991Y-13649031D02*
X13313515Y-13639508D01*
X13313515Y-13639508D02*
X13332562Y-13629984D01*
X13523039Y-13629984D02*
X13542086Y-13629984D01*
X13542086Y-13629984D02*
X13561134Y-13639508D01*
X13561134Y-13639508D02*
X13570658Y-13649031D01*
X13570658Y-13649031D02*
X13580182Y-13668079D01*
X13580182Y-13668079D02*
X13589705Y-13706174D01*
X13589705Y-13706174D02*
X13589705Y-13753793D01*
X13589705Y-13753793D02*
X13580182Y-13791888D01*
X13580182Y-13791888D02*
X13570658Y-13810936D01*
X13570658Y-13810936D02*
X13561134Y-13820460D01*
X13561134Y-13820460D02*
X13542086Y-13829984D01*
X13542086Y-13829984D02*
X13523039Y-13829984D01*
X13523039Y-13829984D02*
X13503991Y-13820460D01*
X13503991Y-13820460D02*
X13494467Y-13810936D01*
X13494467Y-13810936D02*
X13484943Y-13791888D01*
X13484943Y-13791888D02*
X13475420Y-13753793D01*
X13475420Y-13753793D02*
X13475420Y-13706174D01*
X13475420Y-13706174D02*
X13484943Y-13668079D01*
X13484943Y-13668079D02*
X13494467Y-13649031D01*
X13494467Y-13649031D02*
X13503991Y-13639508D01*
X13503991Y-13639508D02*
X13523039Y-13629984D01*
X13675420Y-13829984D02*
X13675420Y-13696650D01*
X13675420Y-13715698D02*
X13684943Y-13706174D01*
X13684943Y-13706174D02*
X13703991Y-13696650D01*
X13703991Y-13696650D02*
X13732563Y-13696650D01*
X13732563Y-13696650D02*
X13751610Y-13706174D01*
X13751610Y-13706174D02*
X13761134Y-13725222D01*
X13761134Y-13725222D02*
X13761134Y-13829984D01*
X13761134Y-13725222D02*
X13770658Y-13706174D01*
X13770658Y-13706174D02*
X13789705Y-13696650D01*
X13789705Y-13696650D02*
X13818277Y-13696650D01*
X13818277Y-13696650D02*
X13837324Y-13706174D01*
X13837324Y-13706174D02*
X13846848Y-13725222D01*
X13846848Y-13725222D02*
X13846848Y-13829984D01*
X13942086Y-13829984D02*
X13942086Y-13696650D01*
X13942086Y-13715698D02*
X13951610Y-13706174D01*
X13951610Y-13706174D02*
X13970658Y-13696650D01*
X13970658Y-13696650D02*
X13999229Y-13696650D01*
X13999229Y-13696650D02*
X14018277Y-13706174D01*
X14018277Y-13706174D02*
X14027801Y-13725222D01*
X14027801Y-13725222D02*
X14027801Y-13829984D01*
X14027801Y-13725222D02*
X14037324Y-13706174D01*
X14037324Y-13706174D02*
X14056372Y-13696650D01*
X14056372Y-13696650D02*
X14084943Y-13696650D01*
X14084943Y-13696650D02*
X14103991Y-13706174D01*
X14103991Y-13706174D02*
X14113515Y-13725222D01*
X14113515Y-13725222D02*
X14113515Y-13829984D01*
X14503991Y-13620460D02*
X14332563Y-13877603D01*
X14761134Y-13629984D02*
X14780182Y-13629984D01*
X14780182Y-13629984D02*
X14799229Y-13639508D01*
X14799229Y-13639508D02*
X14808753Y-13649031D01*
X14808753Y-13649031D02*
X14818277Y-13668079D01*
X14818277Y-13668079D02*
X14827801Y-13706174D01*
X14827801Y-13706174D02*
X14827801Y-13753793D01*
X14827801Y-13753793D02*
X14818277Y-13791888D01*
X14818277Y-13791888D02*
X14808753Y-13810936D01*
X14808753Y-13810936D02*
X14799229Y-13820460D01*
X14799229Y-13820460D02*
X14780182Y-13829984D01*
X14780182Y-13829984D02*
X14761134Y-13829984D01*
X14761134Y-13829984D02*
X14742086Y-13820460D01*
X14742086Y-13820460D02*
X14732563Y-13810936D01*
X14732563Y-13810936D02*
X14723039Y-13791888D01*
X14723039Y-13791888D02*
X14713515Y-13753793D01*
X14713515Y-13753793D02*
X14713515Y-13706174D01*
X14713515Y-13706174D02*
X14723039Y-13668079D01*
X14723039Y-13668079D02*
X14732563Y-13649031D01*
X14732563Y-13649031D02*
X14742086Y-13639508D01*
X14742086Y-13639508D02*
X14761134Y-13629984D01*
X14913515Y-13810936D02*
X14923039Y-13820460D01*
X14923039Y-13820460D02*
X14913515Y-13829984D01*
X14913515Y-13829984D02*
X14903991Y-13820460D01*
X14903991Y-13820460D02*
X14913515Y-13810936D01*
X14913515Y-13810936D02*
X14913515Y-13829984D01*
X15113515Y-13829984D02*
X14999229Y-13829984D01*
X15056372Y-13829984D02*
X15056372Y-13629984D01*
X15056372Y-13629984D02*
X15037325Y-13658555D01*
X15037325Y-13658555D02*
X15018277Y-13677603D01*
X15018277Y-13677603D02*
X14999229Y-13687127D01*
X15303991Y-13829984D02*
X15189706Y-13829984D01*
X15246848Y-13829984D02*
X15246848Y-13629984D01*
X15246848Y-13629984D02*
X15227801Y-13658555D01*
X15227801Y-13658555D02*
X15208753Y-13677603D01*
X15208753Y-13677603D02*
X15189706Y-13687127D01*
X15418277Y-13715698D02*
X15399229Y-13706174D01*
X15399229Y-13706174D02*
X15389706Y-13696650D01*
X15389706Y-13696650D02*
X15380182Y-13677603D01*
X15380182Y-13677603D02*
X15380182Y-13668079D01*
X15380182Y-13668079D02*
X15389706Y-13649031D01*
X15389706Y-13649031D02*
X15399229Y-13639508D01*
X15399229Y-13639508D02*
X15418277Y-13629984D01*
X15418277Y-13629984D02*
X15456372Y-13629984D01*
X15456372Y-13629984D02*
X15475420Y-13639508D01*
X15475420Y-13639508D02*
X15484944Y-13649031D01*
X15484944Y-13649031D02*
X15494467Y-13668079D01*
X15494467Y-13668079D02*
X15494467Y-13677603D01*
X15494467Y-13677603D02*
X15484944Y-13696650D01*
X15484944Y-13696650D02*
X15475420Y-13706174D01*
X15475420Y-13706174D02*
X15456372Y-13715698D01*
X15456372Y-13715698D02*
X15418277Y-13715698D01*
X15418277Y-13715698D02*
X15399229Y-13725222D01*
X15399229Y-13725222D02*
X15389706Y-13734746D01*
X15389706Y-13734746D02*
X15380182Y-13753793D01*
X15380182Y-13753793D02*
X15380182Y-13791888D01*
X15380182Y-13791888D02*
X15389706Y-13810936D01*
X15389706Y-13810936D02*
X15399229Y-13820460D01*
X15399229Y-13820460D02*
X15418277Y-13829984D01*
X15418277Y-13829984D02*
X15456372Y-13829984D01*
X15456372Y-13829984D02*
X15475420Y-13820460D01*
X15475420Y-13820460D02*
X15484944Y-13810936D01*
X15484944Y-13810936D02*
X15494467Y-13791888D01*
X15494467Y-13791888D02*
X15494467Y-13753793D01*
X15494467Y-13753793D02*
X15484944Y-13734746D01*
X15484944Y-13734746D02*
X15475420Y-13725222D01*
X15475420Y-13725222D02*
X15456372Y-13715698D01*
X15684944Y-13829984D02*
X15570658Y-13829984D01*
X15627801Y-13829984D02*
X15627801Y-13629984D01*
X15627801Y-13629984D02*
X15608753Y-13658555D01*
X15608753Y-13658555D02*
X15589706Y-13677603D01*
X15589706Y-13677603D02*
X15570658Y-13687127D01*
X15761134Y-13629984D02*
X15761134Y-13668079D01*
X15837325Y-13629984D02*
X15837325Y-13668079D01*
X16132563Y-13906174D02*
X16123039Y-13896650D01*
X16123039Y-13896650D02*
X16103991Y-13868079D01*
X16103991Y-13868079D02*
X16094468Y-13849031D01*
X16094468Y-13849031D02*
X16084944Y-13820460D01*
X16084944Y-13820460D02*
X16075420Y-13772841D01*
X16075420Y-13772841D02*
X16075420Y-13734746D01*
X16075420Y-13734746D02*
X16084944Y-13687127D01*
X16084944Y-13687127D02*
X16094468Y-13658555D01*
X16094468Y-13658555D02*
X16103991Y-13639508D01*
X16103991Y-13639508D02*
X16123039Y-13610936D01*
X16123039Y-13610936D02*
X16132563Y-13601412D01*
X16313515Y-13829984D02*
X16199229Y-13829984D01*
X16256372Y-13829984D02*
X16256372Y-13629984D01*
X16256372Y-13629984D02*
X16237325Y-13658555D01*
X16237325Y-13658555D02*
X16218277Y-13677603D01*
X16218277Y-13677603D02*
X16199229Y-13687127D01*
X16551610Y-13829984D02*
X16551610Y-13629984D01*
X16637325Y-13829984D02*
X16637325Y-13725222D01*
X16637325Y-13725222D02*
X16627801Y-13706174D01*
X16627801Y-13706174D02*
X16608753Y-13696650D01*
X16608753Y-13696650D02*
X16580182Y-13696650D01*
X16580182Y-13696650D02*
X16561134Y-13706174D01*
X16561134Y-13706174D02*
X16551610Y-13715698D01*
X16761134Y-13829984D02*
X16742087Y-13820460D01*
X16742087Y-13820460D02*
X16732563Y-13810936D01*
X16732563Y-13810936D02*
X16723039Y-13791888D01*
X16723039Y-13791888D02*
X16723039Y-13734746D01*
X16723039Y-13734746D02*
X16732563Y-13715698D01*
X16732563Y-13715698D02*
X16742087Y-13706174D01*
X16742087Y-13706174D02*
X16761134Y-13696650D01*
X16761134Y-13696650D02*
X16789706Y-13696650D01*
X16789706Y-13696650D02*
X16808753Y-13706174D01*
X16808753Y-13706174D02*
X16818277Y-13715698D01*
X16818277Y-13715698D02*
X16827801Y-13734746D01*
X16827801Y-13734746D02*
X16827801Y-13791888D01*
X16827801Y-13791888D02*
X16818277Y-13810936D01*
X16818277Y-13810936D02*
X16808753Y-13820460D01*
X16808753Y-13820460D02*
X16789706Y-13829984D01*
X16789706Y-13829984D02*
X16761134Y-13829984D01*
X16942087Y-13829984D02*
X16923039Y-13820460D01*
X16923039Y-13820460D02*
X16913515Y-13801412D01*
X16913515Y-13801412D02*
X16913515Y-13629984D01*
X17094468Y-13820460D02*
X17075420Y-13829984D01*
X17075420Y-13829984D02*
X17037325Y-13829984D01*
X17037325Y-13829984D02*
X17018277Y-13820460D01*
X17018277Y-13820460D02*
X17008753Y-13801412D01*
X17008753Y-13801412D02*
X17008753Y-13725222D01*
X17008753Y-13725222D02*
X17018277Y-13706174D01*
X17018277Y-13706174D02*
X17037325Y-13696650D01*
X17037325Y-13696650D02*
X17075420Y-13696650D01*
X17075420Y-13696650D02*
X17094468Y-13706174D01*
X17094468Y-13706174D02*
X17103992Y-13725222D01*
X17103992Y-13725222D02*
X17103992Y-13744269D01*
X17103992Y-13744269D02*
X17008753Y-13763317D01*
X17170658Y-13906174D02*
X17180182Y-13896650D01*
X17180182Y-13896650D02*
X17199230Y-13868079D01*
X17199230Y-13868079D02*
X17208753Y-13849031D01*
X17208753Y-13849031D02*
X17218277Y-13820460D01*
X17218277Y-13820460D02*
X17227801Y-13772841D01*
X17227801Y-13772841D02*
X17227801Y-13734746D01*
X17227801Y-13734746D02*
X17218277Y-13687127D01*
X17218277Y-13687127D02*
X17208753Y-13658555D01*
X17208753Y-13658555D02*
X17199230Y-13639508D01*
X17199230Y-13639508D02*
X17180182Y-13610936D01*
X17180182Y-13610936D02*
X17170658Y-13601412D01*
X17532563Y-13906174D02*
X17523039Y-13896650D01*
X17523039Y-13896650D02*
X17503992Y-13868079D01*
X17503992Y-13868079D02*
X17494468Y-13849031D01*
X17494468Y-13849031D02*
X17484944Y-13820460D01*
X17484944Y-13820460D02*
X17475420Y-13772841D01*
X17475420Y-13772841D02*
X17475420Y-13734746D01*
X17475420Y-13734746D02*
X17484944Y-13687127D01*
X17484944Y-13687127D02*
X17494468Y-13658555D01*
X17494468Y-13658555D02*
X17503992Y-13639508D01*
X17503992Y-13639508D02*
X17523039Y-13610936D01*
X17523039Y-13610936D02*
X17532563Y-13601412D01*
X17608753Y-13696650D02*
X17608753Y-13829984D01*
X17608753Y-13715698D02*
X17618277Y-13706174D01*
X17618277Y-13706174D02*
X17637325Y-13696650D01*
X17637325Y-13696650D02*
X17665896Y-13696650D01*
X17665896Y-13696650D02*
X17684944Y-13706174D01*
X17684944Y-13706174D02*
X17694468Y-13725222D01*
X17694468Y-13725222D02*
X17694468Y-13829984D01*
X17818277Y-13829984D02*
X17799230Y-13820460D01*
X17799230Y-13820460D02*
X17789706Y-13810936D01*
X17789706Y-13810936D02*
X17780182Y-13791888D01*
X17780182Y-13791888D02*
X17780182Y-13734746D01*
X17780182Y-13734746D02*
X17789706Y-13715698D01*
X17789706Y-13715698D02*
X17799230Y-13706174D01*
X17799230Y-13706174D02*
X17818277Y-13696650D01*
X17818277Y-13696650D02*
X17846849Y-13696650D01*
X17846849Y-13696650D02*
X17865896Y-13706174D01*
X17865896Y-13706174D02*
X17875420Y-13715698D01*
X17875420Y-13715698D02*
X17884944Y-13734746D01*
X17884944Y-13734746D02*
X17884944Y-13791888D01*
X17884944Y-13791888D02*
X17875420Y-13810936D01*
X17875420Y-13810936D02*
X17865896Y-13820460D01*
X17865896Y-13820460D02*
X17846849Y-13829984D01*
X17846849Y-13829984D02*
X17818277Y-13829984D01*
X17942087Y-13696650D02*
X18018277Y-13696650D01*
X17970658Y-13629984D02*
X17970658Y-13801412D01*
X17970658Y-13801412D02*
X17980182Y-13820460D01*
X17980182Y-13820460D02*
X17999230Y-13829984D01*
X17999230Y-13829984D02*
X18018277Y-13829984D01*
X18237325Y-13696650D02*
X18237325Y-13896650D01*
X18237325Y-13706174D02*
X18256373Y-13696650D01*
X18256373Y-13696650D02*
X18294468Y-13696650D01*
X18294468Y-13696650D02*
X18313515Y-13706174D01*
X18313515Y-13706174D02*
X18323039Y-13715698D01*
X18323039Y-13715698D02*
X18332563Y-13734746D01*
X18332563Y-13734746D02*
X18332563Y-13791888D01*
X18332563Y-13791888D02*
X18323039Y-13810936D01*
X18323039Y-13810936D02*
X18313515Y-13820460D01*
X18313515Y-13820460D02*
X18294468Y-13829984D01*
X18294468Y-13829984D02*
X18256373Y-13829984D01*
X18256373Y-13829984D02*
X18237325Y-13820460D01*
X18446849Y-13829984D02*
X18427801Y-13820460D01*
X18427801Y-13820460D02*
X18418277Y-13801412D01*
X18418277Y-13801412D02*
X18418277Y-13629984D01*
X18608754Y-13829984D02*
X18608754Y-13725222D01*
X18608754Y-13725222D02*
X18599230Y-13706174D01*
X18599230Y-13706174D02*
X18580182Y-13696650D01*
X18580182Y-13696650D02*
X18542087Y-13696650D01*
X18542087Y-13696650D02*
X18523039Y-13706174D01*
X18608754Y-13820460D02*
X18589706Y-13829984D01*
X18589706Y-13829984D02*
X18542087Y-13829984D01*
X18542087Y-13829984D02*
X18523039Y-13820460D01*
X18523039Y-13820460D02*
X18513515Y-13801412D01*
X18513515Y-13801412D02*
X18513515Y-13782365D01*
X18513515Y-13782365D02*
X18523039Y-13763317D01*
X18523039Y-13763317D02*
X18542087Y-13753793D01*
X18542087Y-13753793D02*
X18589706Y-13753793D01*
X18589706Y-13753793D02*
X18608754Y-13744269D01*
X18675420Y-13696650D02*
X18751611Y-13696650D01*
X18703992Y-13629984D02*
X18703992Y-13801412D01*
X18703992Y-13801412D02*
X18713515Y-13820460D01*
X18713515Y-13820460D02*
X18732563Y-13829984D01*
X18732563Y-13829984D02*
X18751611Y-13829984D01*
X18894468Y-13820460D02*
X18875420Y-13829984D01*
X18875420Y-13829984D02*
X18837325Y-13829984D01*
X18837325Y-13829984D02*
X18818277Y-13820460D01*
X18818277Y-13820460D02*
X18808754Y-13801412D01*
X18808754Y-13801412D02*
X18808754Y-13725222D01*
X18808754Y-13725222D02*
X18818277Y-13706174D01*
X18818277Y-13706174D02*
X18837325Y-13696650D01*
X18837325Y-13696650D02*
X18875420Y-13696650D01*
X18875420Y-13696650D02*
X18894468Y-13706174D01*
X18894468Y-13706174D02*
X18903992Y-13725222D01*
X18903992Y-13725222D02*
X18903992Y-13744269D01*
X18903992Y-13744269D02*
X18808754Y-13763317D01*
X19075420Y-13829984D02*
X19075420Y-13629984D01*
X19075420Y-13820460D02*
X19056373Y-13829984D01*
X19056373Y-13829984D02*
X19018277Y-13829984D01*
X19018277Y-13829984D02*
X18999230Y-13820460D01*
X18999230Y-13820460D02*
X18989706Y-13810936D01*
X18989706Y-13810936D02*
X18980182Y-13791888D01*
X18980182Y-13791888D02*
X18980182Y-13734746D01*
X18980182Y-13734746D02*
X18989706Y-13715698D01*
X18989706Y-13715698D02*
X18999230Y-13706174D01*
X18999230Y-13706174D02*
X19018277Y-13696650D01*
X19018277Y-13696650D02*
X19056373Y-13696650D01*
X19056373Y-13696650D02*
X19075420Y-13706174D01*
X19151611Y-13906174D02*
X19161135Y-13896650D01*
X19161135Y-13896650D02*
X19180182Y-13868079D01*
X19180182Y-13868079D02*
X19189706Y-13849031D01*
X19189706Y-13849031D02*
X19199230Y-13820460D01*
X19199230Y-13820460D02*
X19208754Y-13772841D01*
X19208754Y-13772841D02*
X19208754Y-13734746D01*
X19208754Y-13734746D02*
X19199230Y-13687127D01*
X19199230Y-13687127D02*
X19189706Y-13658555D01*
X19189706Y-13658555D02*
X19180182Y-13639508D01*
X19180182Y-13639508D02*
X19161135Y-13610936D01*
X19161135Y-13610936D02*
X19151611Y-13601412D01*
M02*
